<?xml version="1.0" encoding="utf-8" standalone="no"?>
<!DOCTYPE svg PUBLIC "-//W3C//DTD SVG 1.1//EN"
  "http://www.w3.org/Graphics/SVG/1.1/DTD/svg11.dtd">
<!-- Created with matplotlib (https://matplotlib.org/) -->
<svg height="897.869687pt" version="1.1" viewBox="0 0 796.612937 897.869687" width="796.612937pt" xmlns="http://www.w3.org/2000/svg" xmlns:xlink="http://www.w3.org/1999/xlink">
 <defs>
  <style type="text/css">*{stroke-linecap:butt;stroke-linejoin:round;}</style>
 </defs>
 <g id="figure_1">
  <g id="patch_1">
   <path d="M 0 897.869687 
L 796.612937 897.869687 
L 796.612937 0 
L 0 0 
z
" style="fill:none;"/>
  </g>
  <g id="axes_1">
   <g id="patch_2">
    <path d="M 61.410938 248.99625 
L 392.212938 248.99625 
L 392.212938 31.43625 
L 61.410938 31.43625 
z
" style="fill:none;"/>
   </g>
   <g id="matplotlib.axis_1">
    <g id="xtick_1">
     <g id="line2d_1">
      <path clip-path="url(#p21b635dbb2)" d="M 139.75878 248.99625 
L 139.75878 31.43625 
" style="fill:none;stroke:#b0b0b0;stroke-linecap:square;stroke-width:0.8;"/>
     </g>
     <g id="line2d_2">
      <defs>
       <path d="M 0 0 
L 0 3.5 
" id="m005f0a59be" style="stroke:#000000;stroke-width:0.8;"/>
      </defs>
      <g>
       <use style="stroke:#000000;stroke-width:0.8;" x="139.75878" xlink:href="#m005f0a59be" y="248.99625"/>
      </g>
     </g>
     <g id="text_1">
      <!-- 5 -->
      <g transform="translate(134.986905 267.393906)scale(0.15 -0.15)">
       <defs>
        <path d="M 10.796875 72.90625 
L 49.515625 72.90625 
L 49.515625 64.59375 
L 19.828125 64.59375 
L 19.828125 46.734375 
Q 21.96875 47.46875 24.109375 47.828125 
Q 26.265625 48.1875 28.421875 48.1875 
Q 40.625 48.1875 47.75 41.5 
Q 54.890625 34.8125 54.890625 23.390625 
Q 54.890625 11.625 47.5625 5.09375 
Q 40.234375 -1.421875 26.90625 -1.421875 
Q 22.3125 -1.421875 17.546875 -0.640625 
Q 12.796875 0.140625 7.71875 1.703125 
L 7.71875 11.625 
Q 12.109375 9.234375 16.796875 8.0625 
Q 21.484375 6.890625 26.703125 6.890625 
Q 35.15625 6.890625 40.078125 11.328125 
Q 45.015625 15.765625 45.015625 23.390625 
Q 45.015625 31 40.078125 35.4375 
Q 35.15625 39.890625 26.703125 39.890625 
Q 22.75 39.890625 18.8125 39.015625 
Q 14.890625 38.140625 10.796875 36.28125 
z
" id="DejaVuSans-53"/>
       </defs>
       <use xlink:href="#DejaVuSans-53"/>
      </g>
     </g>
    </g>
    <g id="xtick_2">
     <g id="line2d_3">
      <path clip-path="url(#p21b635dbb2)" d="M 218.898014 248.99625 
L 218.898014 31.43625 
" style="fill:none;stroke:#b0b0b0;stroke-linecap:square;stroke-width:0.8;"/>
     </g>
     <g id="line2d_4">
      <g>
       <use style="stroke:#000000;stroke-width:0.8;" x="218.898014" xlink:href="#m005f0a59be" y="248.99625"/>
      </g>
     </g>
     <g id="text_2">
      <!-- 10 -->
      <g transform="translate(209.354264 267.393906)scale(0.15 -0.15)">
       <defs>
        <path d="M 12.40625 8.296875 
L 28.515625 8.296875 
L 28.515625 63.921875 
L 10.984375 60.40625 
L 10.984375 69.390625 
L 28.421875 72.90625 
L 38.28125 72.90625 
L 38.28125 8.296875 
L 54.390625 8.296875 
L 54.390625 0 
L 12.40625 0 
z
" id="DejaVuSans-49"/>
        <path d="M 31.78125 66.40625 
Q 24.171875 66.40625 20.328125 58.90625 
Q 16.5 51.421875 16.5 36.375 
Q 16.5 21.390625 20.328125 13.890625 
Q 24.171875 6.390625 31.78125 6.390625 
Q 39.453125 6.390625 43.28125 13.890625 
Q 47.125 21.390625 47.125 36.375 
Q 47.125 51.421875 43.28125 58.90625 
Q 39.453125 66.40625 31.78125 66.40625 
z
M 31.78125 74.21875 
Q 44.046875 74.21875 50.515625 64.515625 
Q 56.984375 54.828125 56.984375 36.375 
Q 56.984375 17.96875 50.515625 8.265625 
Q 44.046875 -1.421875 31.78125 -1.421875 
Q 19.53125 -1.421875 13.0625 8.265625 
Q 6.59375 17.96875 6.59375 36.375 
Q 6.59375 54.828125 13.0625 64.515625 
Q 19.53125 74.21875 31.78125 74.21875 
z
" id="DejaVuSans-48"/>
       </defs>
       <use xlink:href="#DejaVuSans-49"/>
       <use x="63.623047" xlink:href="#DejaVuSans-48"/>
      </g>
     </g>
    </g>
    <g id="xtick_3">
     <g id="line2d_5">
      <path clip-path="url(#p21b635dbb2)" d="M 298.037249 248.99625 
L 298.037249 31.43625 
" style="fill:none;stroke:#b0b0b0;stroke-linecap:square;stroke-width:0.8;"/>
     </g>
     <g id="line2d_6">
      <g>
       <use style="stroke:#000000;stroke-width:0.8;" x="298.037249" xlink:href="#m005f0a59be" y="248.99625"/>
      </g>
     </g>
     <g id="text_3">
      <!-- 15 -->
      <g transform="translate(288.493499 267.393906)scale(0.15 -0.15)">
       <use xlink:href="#DejaVuSans-49"/>
       <use x="63.623047" xlink:href="#DejaVuSans-53"/>
      </g>
     </g>
    </g>
    <g id="xtick_4">
     <g id="line2d_7">
      <path clip-path="url(#p21b635dbb2)" d="M 377.176483 248.99625 
L 377.176483 31.43625 
" style="fill:none;stroke:#b0b0b0;stroke-linecap:square;stroke-width:0.8;"/>
     </g>
     <g id="line2d_8">
      <g>
       <use style="stroke:#000000;stroke-width:0.8;" x="377.176483" xlink:href="#m005f0a59be" y="248.99625"/>
      </g>
     </g>
     <g id="text_4">
      <!-- 20 -->
      <g transform="translate(367.632733 267.393906)scale(0.15 -0.15)">
       <defs>
        <path d="M 19.1875 8.296875 
L 53.609375 8.296875 
L 53.609375 0 
L 7.328125 0 
L 7.328125 8.296875 
Q 12.9375 14.109375 22.625 23.890625 
Q 32.328125 33.6875 34.8125 36.53125 
Q 39.546875 41.84375 41.421875 45.53125 
Q 43.3125 49.21875 43.3125 52.78125 
Q 43.3125 58.59375 39.234375 62.25 
Q 35.15625 65.921875 28.609375 65.921875 
Q 23.96875 65.921875 18.8125 64.3125 
Q 13.671875 62.703125 7.8125 59.421875 
L 7.8125 69.390625 
Q 13.765625 71.78125 18.9375 73 
Q 24.125 74.21875 28.421875 74.21875 
Q 39.75 74.21875 46.484375 68.546875 
Q 53.21875 62.890625 53.21875 53.421875 
Q 53.21875 48.921875 51.53125 44.890625 
Q 49.859375 40.875 45.40625 35.40625 
Q 44.1875 33.984375 37.640625 27.21875 
Q 31.109375 20.453125 19.1875 8.296875 
z
" id="DejaVuSans-50"/>
       </defs>
       <use xlink:href="#DejaVuSans-50"/>
       <use x="63.623047" xlink:href="#DejaVuSans-48"/>
      </g>
     </g>
    </g>
    <g id="text_5">
     <!-- Site # -->
     <g transform="translate(196.054125 289.710312)scale(0.2 -0.2)">
      <defs>
       <path d="M 53.515625 70.515625 
L 53.515625 60.890625 
Q 47.90625 63.578125 42.921875 64.890625 
Q 37.9375 66.21875 33.296875 66.21875 
Q 25.25 66.21875 20.875 63.09375 
Q 16.5 59.96875 16.5 54.203125 
Q 16.5 49.359375 19.40625 46.890625 
Q 22.3125 44.4375 30.421875 42.921875 
L 36.375 41.703125 
Q 47.40625 39.59375 52.65625 34.296875 
Q 57.90625 29 57.90625 20.125 
Q 57.90625 9.515625 50.796875 4.046875 
Q 43.703125 -1.421875 29.984375 -1.421875 
Q 24.8125 -1.421875 18.96875 -0.25 
Q 13.140625 0.921875 6.890625 3.21875 
L 6.890625 13.375 
Q 12.890625 10.015625 18.65625 8.296875 
Q 24.421875 6.59375 29.984375 6.59375 
Q 38.421875 6.59375 43.015625 9.90625 
Q 47.609375 13.234375 47.609375 19.390625 
Q 47.609375 24.75 44.3125 27.78125 
Q 41.015625 30.8125 33.5 32.328125 
L 27.484375 33.5 
Q 16.453125 35.6875 11.515625 40.375 
Q 6.59375 45.0625 6.59375 53.421875 
Q 6.59375 63.09375 13.40625 68.65625 
Q 20.21875 74.21875 32.171875 74.21875 
Q 37.3125 74.21875 42.625 73.28125 
Q 47.953125 72.359375 53.515625 70.515625 
z
" id="DejaVuSans-83"/>
       <path d="M 9.421875 54.6875 
L 18.40625 54.6875 
L 18.40625 0 
L 9.421875 0 
z
M 9.421875 75.984375 
L 18.40625 75.984375 
L 18.40625 64.59375 
L 9.421875 64.59375 
z
" id="DejaVuSans-105"/>
       <path d="M 18.3125 70.21875 
L 18.3125 54.6875 
L 36.8125 54.6875 
L 36.8125 47.703125 
L 18.3125 47.703125 
L 18.3125 18.015625 
Q 18.3125 11.328125 20.140625 9.421875 
Q 21.96875 7.515625 27.59375 7.515625 
L 36.8125 7.515625 
L 36.8125 0 
L 27.59375 0 
Q 17.1875 0 13.234375 3.875 
Q 9.28125 7.765625 9.28125 18.015625 
L 9.28125 47.703125 
L 2.6875 47.703125 
L 2.6875 54.6875 
L 9.28125 54.6875 
L 9.28125 70.21875 
z
" id="DejaVuSans-116"/>
       <path d="M 56.203125 29.59375 
L 56.203125 25.203125 
L 14.890625 25.203125 
Q 15.484375 15.921875 20.484375 11.0625 
Q 25.484375 6.203125 34.421875 6.203125 
Q 39.59375 6.203125 44.453125 7.46875 
Q 49.3125 8.734375 54.109375 11.28125 
L 54.109375 2.78125 
Q 49.265625 0.734375 44.1875 -0.34375 
Q 39.109375 -1.421875 33.890625 -1.421875 
Q 20.796875 -1.421875 13.15625 6.1875 
Q 5.515625 13.8125 5.515625 26.8125 
Q 5.515625 40.234375 12.765625 48.109375 
Q 20.015625 56 32.328125 56 
Q 43.359375 56 49.78125 48.890625 
Q 56.203125 41.796875 56.203125 29.59375 
z
M 47.21875 32.234375 
Q 47.125 39.59375 43.09375 43.984375 
Q 39.0625 48.390625 32.421875 48.390625 
Q 24.90625 48.390625 20.390625 44.140625 
Q 15.875 39.890625 15.1875 32.171875 
z
" id="DejaVuSans-101"/>
       <path id="DejaVuSans-32"/>
       <path d="M 51.125 44 
L 36.921875 44 
L 32.8125 27.6875 
L 47.125 27.6875 
z
M 43.796875 71.78125 
L 38.71875 51.515625 
L 52.984375 51.515625 
L 58.109375 71.78125 
L 65.921875 71.78125 
L 60.890625 51.515625 
L 76.125 51.515625 
L 76.125 44 
L 58.984375 44 
L 54.984375 27.6875 
L 70.515625 27.6875 
L 70.515625 20.21875 
L 53.078125 20.21875 
L 48 0 
L 40.1875 0 
L 45.21875 20.21875 
L 30.90625 20.21875 
L 25.875 0 
L 18.015625 0 
L 23.09375 20.21875 
L 7.71875 20.21875 
L 7.71875 27.6875 
L 24.90625 27.6875 
L 29 44 
L 13.28125 44 
L 13.28125 51.515625 
L 30.90625 51.515625 
L 35.890625 71.78125 
z
" id="DejaVuSans-35"/>
      </defs>
      <use xlink:href="#DejaVuSans-83"/>
      <use x="63.476562" xlink:href="#DejaVuSans-105"/>
      <use x="91.259766" xlink:href="#DejaVuSans-116"/>
      <use x="130.46875" xlink:href="#DejaVuSans-101"/>
      <use x="191.992188" xlink:href="#DejaVuSans-32"/>
      <use x="223.779297" xlink:href="#DejaVuSans-35"/>
     </g>
    </g>
   </g>
   <g id="matplotlib.axis_2">
    <g id="ytick_1">
     <g id="line2d_9">
      <path clip-path="url(#p21b635dbb2)" d="M 61.410938 248.99625 
L 392.212938 248.99625 
" style="fill:none;stroke:#b0b0b0;stroke-linecap:square;stroke-width:0.8;"/>
     </g>
     <g id="line2d_10">
      <defs>
       <path d="M 0 0 
L -3.5 0 
" id="mc3ce260a5b" style="stroke:#000000;stroke-width:0.8;"/>
      </defs>
      <g>
       <use style="stroke:#000000;stroke-width:0.8;" x="61.410938" xlink:href="#mc3ce260a5b" y="248.99625"/>
      </g>
     </g>
     <g id="text_6">
      <!-- 0 -->
      <g transform="translate(44.867188 254.695078)scale(0.15 -0.15)">
       <use xlink:href="#DejaVuSans-48"/>
      </g>
     </g>
    </g>
    <g id="ytick_2">
     <g id="line2d_11">
      <path clip-path="url(#p21b635dbb2)" d="M 61.410938 193.703005 
L 392.212938 193.703005 
" style="fill:none;stroke:#b0b0b0;stroke-linecap:square;stroke-width:0.8;"/>
     </g>
     <g id="line2d_12">
      <g>
       <use style="stroke:#000000;stroke-width:0.8;" x="61.410938" xlink:href="#mc3ce260a5b" y="193.703005"/>
      </g>
     </g>
     <g id="text_7">
      <!-- 1 -->
      <g transform="translate(44.867188 199.401833)scale(0.15 -0.15)">
       <use xlink:href="#DejaVuSans-49"/>
      </g>
     </g>
    </g>
    <g id="ytick_3">
     <g id="line2d_13">
      <path clip-path="url(#p21b635dbb2)" d="M 61.410938 138.409759 
L 392.212938 138.409759 
" style="fill:none;stroke:#b0b0b0;stroke-linecap:square;stroke-width:0.8;"/>
     </g>
     <g id="line2d_14">
      <g>
       <use style="stroke:#000000;stroke-width:0.8;" x="61.410938" xlink:href="#mc3ce260a5b" y="138.409759"/>
      </g>
     </g>
     <g id="text_8">
      <!-- 2 -->
      <g transform="translate(44.867188 144.108587)scale(0.15 -0.15)">
       <use xlink:href="#DejaVuSans-50"/>
      </g>
     </g>
    </g>
    <g id="ytick_4">
     <g id="line2d_15">
      <path clip-path="url(#p21b635dbb2)" d="M 61.410938 83.116514 
L 392.212938 83.116514 
" style="fill:none;stroke:#b0b0b0;stroke-linecap:square;stroke-width:0.8;"/>
     </g>
     <g id="line2d_16">
      <g>
       <use style="stroke:#000000;stroke-width:0.8;" x="61.410938" xlink:href="#mc3ce260a5b" y="83.116514"/>
      </g>
     </g>
     <g id="text_9">
      <!-- 3 -->
      <g transform="translate(44.867188 88.815342)scale(0.15 -0.15)">
       <defs>
        <path d="M 40.578125 39.3125 
Q 47.65625 37.796875 51.625 33 
Q 55.609375 28.21875 55.609375 21.1875 
Q 55.609375 10.40625 48.1875 4.484375 
Q 40.765625 -1.421875 27.09375 -1.421875 
Q 22.515625 -1.421875 17.65625 -0.515625 
Q 12.796875 0.390625 7.625 2.203125 
L 7.625 11.71875 
Q 11.71875 9.328125 16.59375 8.109375 
Q 21.484375 6.890625 26.8125 6.890625 
Q 36.078125 6.890625 40.9375 10.546875 
Q 45.796875 14.203125 45.796875 21.1875 
Q 45.796875 27.640625 41.28125 31.265625 
Q 36.765625 34.90625 28.71875 34.90625 
L 20.21875 34.90625 
L 20.21875 43.015625 
L 29.109375 43.015625 
Q 36.375 43.015625 40.234375 45.921875 
Q 44.09375 48.828125 44.09375 54.296875 
Q 44.09375 59.90625 40.109375 62.90625 
Q 36.140625 65.921875 28.71875 65.921875 
Q 24.65625 65.921875 20.015625 65.03125 
Q 15.375 64.15625 9.8125 62.3125 
L 9.8125 71.09375 
Q 15.4375 72.65625 20.34375 73.4375 
Q 25.25 74.21875 29.59375 74.21875 
Q 40.828125 74.21875 47.359375 69.109375 
Q 53.90625 64.015625 53.90625 55.328125 
Q 53.90625 49.265625 50.4375 45.09375 
Q 46.96875 40.921875 40.578125 39.3125 
z
" id="DejaVuSans-51"/>
       </defs>
       <use xlink:href="#DejaVuSans-51"/>
      </g>
     </g>
    </g>
    <g id="text_10">
     <!-- $ \tau_{F3} (ms)$ -->
     <g transform="translate(36.707812 177.81625)rotate(-90)scale(0.2 -0.2)">
      <defs>
       <path d="M 32.859375 9.96875 
Q 34.1875 7.625 39.453125 7.625 
L 43.75 7.625 
L 42.28125 0 
L 36.921875 0 
Q 28.125 0 25 4.6875 
Q 21.921875 9.46875 23.96875 19.828125 
L 29 45.703125 
L 8.453125 45.703125 
L 10.203125 54.6875 
L 60.640625 54.6875 
L 58.890625 45.703125 
L 38.1875 45.703125 
L 33.015625 19.28125 
Q 31.640625 12.203125 32.859375 9.96875 
z
" id="DejaVuSans-Oblique-964"/>
       <path d="M 16.890625 72.90625 
L 58.6875 72.90625 
L 57.078125 64.59375 
L 25.09375 64.59375 
L 20.90625 43.109375 
L 49.8125 43.109375 
L 48.1875 34.8125 
L 19.28125 34.8125 
L 12.5 0 
L 2.6875 0 
z
" id="DejaVuSans-Oblique-70"/>
       <path d="M 31 75.875 
Q 24.46875 64.65625 21.28125 53.65625 
Q 18.109375 42.671875 18.109375 31.390625 
Q 18.109375 20.125 21.3125 9.0625 
Q 24.515625 -2 31 -13.1875 
L 23.1875 -13.1875 
Q 15.875 -1.703125 12.234375 9.375 
Q 8.59375 20.453125 8.59375 31.390625 
Q 8.59375 42.28125 12.203125 53.3125 
Q 15.828125 64.359375 23.1875 75.875 
z
" id="DejaVuSans-40"/>
       <path d="M 89.796875 33.015625 
L 83.40625 0 
L 74.421875 0 
L 80.71875 32.71875 
Q 81.109375 34.8125 81.296875 36.328125 
Q 81.5 37.84375 81.5 38.921875 
Q 81.5 43.3125 79.046875 45.75 
Q 76.609375 48.1875 72.21875 48.1875 
Q 65.671875 48.1875 60.546875 43.28125 
Q 55.421875 38.375 53.90625 30.515625 
L 47.90625 0 
L 38.921875 0 
L 45.3125 32.71875 
Q 45.703125 34.515625 45.890625 36.046875 
Q 46.09375 37.59375 46.09375 38.8125 
Q 46.09375 43.265625 43.65625 45.71875 
Q 41.21875 48.1875 36.921875 48.1875 
Q 30.28125 48.1875 25.140625 43.28125 
Q 20.015625 38.375 18.5 30.515625 
L 12.5 0 
L 3.515625 0 
L 14.203125 54.6875 
L 23.1875 54.6875 
L 21.484375 46.1875 
Q 25.140625 50.984375 30.046875 53.484375 
Q 34.96875 56 40.578125 56 
Q 46.53125 56 50.359375 52.875 
Q 54.203125 49.75 54.984375 44.1875 
Q 59.078125 49.953125 64.46875 52.96875 
Q 69.875 56 75.875 56 
Q 82.90625 56 86.734375 51.953125 
Q 90.578125 47.90625 90.578125 40.484375 
Q 90.578125 38.875 90.375 36.9375 
Q 90.1875 35.015625 89.796875 33.015625 
z
" id="DejaVuSans-Oblique-109"/>
       <path d="M 50 53.078125 
L 48.296875 44.578125 
Q 44.734375 46.53125 40.765625 47.5 
Q 36.8125 48.484375 32.625 48.484375 
Q 25.53125 48.484375 21.453125 46.0625 
Q 17.390625 43.65625 17.390625 39.5 
Q 17.390625 34.671875 26.859375 32.078125 
Q 27.59375 31.890625 27.9375 31.78125 
L 30.8125 30.90625 
Q 39.796875 28.421875 42.796875 25.6875 
Q 45.796875 22.953125 45.796875 18.21875 
Q 45.796875 9.515625 38.890625 4.046875 
Q 31.984375 -1.421875 20.796875 -1.421875 
Q 16.453125 -1.421875 11.671875 -0.578125 
Q 6.890625 0.25 1.125 2 
L 2.875 11.28125 
Q 7.8125 8.734375 12.59375 7.421875 
Q 17.390625 6.109375 21.78125 6.109375 
Q 28.375 6.109375 32.5 8.9375 
Q 36.625 11.765625 36.625 16.109375 
Q 36.625 20.796875 25.78125 23.6875 
L 24.859375 23.921875 
L 21.78125 24.703125 
Q 14.9375 26.515625 11.765625 29.46875 
Q 8.59375 32.421875 8.59375 37.015625 
Q 8.59375 45.75 15.15625 50.875 
Q 21.734375 56 33.015625 56 
Q 37.453125 56 41.671875 55.265625 
Q 45.90625 54.546875 50 53.078125 
z
" id="DejaVuSans-Oblique-115"/>
       <path d="M 8.015625 75.875 
L 15.828125 75.875 
Q 23.140625 64.359375 26.78125 53.3125 
Q 30.421875 42.28125 30.421875 31.390625 
Q 30.421875 20.453125 26.78125 9.375 
Q 23.140625 -1.703125 15.828125 -13.1875 
L 8.015625 -13.1875 
Q 14.5 -2 17.703125 9.0625 
Q 20.90625 20.125 20.90625 31.390625 
Q 20.90625 42.671875 17.703125 53.65625 
Q 14.5 64.65625 8.015625 75.875 
z
" id="DejaVuSans-41"/>
      </defs>
      <use transform="translate(0 0.125)" xlink:href="#DejaVuSans-Oblique-964"/>
      <use transform="translate(60.205078 -16.28125)scale(0.7)" xlink:href="#DejaVuSans-Oblique-70"/>
      <use transform="translate(100.46875 -16.28125)scale(0.7)" xlink:href="#DejaVuSans-51"/>
      <use transform="translate(147.739258 0.125)" xlink:href="#DejaVuSans-40"/>
      <use transform="translate(186.75293 0.125)" xlink:href="#DejaVuSans-Oblique-109"/>
      <use transform="translate(284.165039 0.125)" xlink:href="#DejaVuSans-Oblique-115"/>
      <use transform="translate(336.264648 0.125)" xlink:href="#DejaVuSans-41"/>
     </g>
    </g>
   </g>
   <g id="LineCollection_1">
    <path clip-path="url(#p21b635dbb2)" d="M 76.447392 54.842604 
L 76.447392 37.419465 
" style="fill:none;stroke:#1f77b4;stroke-width:1.5;"/>
    <path clip-path="url(#p21b635dbb2)" d="M 92.275239 69.422787 
L 92.275239 52.915666 
" style="fill:none;stroke:#1f77b4;stroke-width:1.5;"/>
    <path clip-path="url(#p21b635dbb2)" d="M 108.103086 79.989207 
L 108.103086 64.875036 
" style="fill:none;stroke:#1f77b4;stroke-width:1.5;"/>
    <path clip-path="url(#p21b635dbb2)" d="M 123.930933 68.199381 
L 123.930933 52.476275 
" style="fill:none;stroke:#1f77b4;stroke-width:1.5;"/>
    <path clip-path="url(#p21b635dbb2)" d="M 139.75878 67.636616 
L 139.75878 52.173421 
" style="fill:none;stroke:#1f77b4;stroke-width:1.5;"/>
    <path clip-path="url(#p21b635dbb2)" d="M 155.586626 76.037699 
L 155.586626 61.402678 
" style="fill:none;stroke:#1f77b4;stroke-width:1.5;"/>
    <path clip-path="url(#p21b635dbb2)" d="M 171.414473 88.329127 
L 171.414473 74.569815 
" style="fill:none;stroke:#1f77b4;stroke-width:1.5;"/>
    <path clip-path="url(#p21b635dbb2)" d="M 187.24232 72.492975 
L 187.24232 57.053866 
" style="fill:none;stroke:#1f77b4;stroke-width:1.5;"/>
    <path clip-path="url(#p21b635dbb2)" d="M 203.070167 111.296555 
L 203.070167 98.705793 
" style="fill:none;stroke:#1f77b4;stroke-width:1.5;"/>
    <path clip-path="url(#p21b635dbb2)" d="M 218.898014 101.856883 
L 218.898014 88.689757 
" style="fill:none;stroke:#1f77b4;stroke-width:1.5;"/>
    <path clip-path="url(#p21b635dbb2)" d="M 234.725861 93.333346 
L 234.725861 78.930056 
" style="fill:none;stroke:#1f77b4;stroke-width:1.5;"/>
    <path clip-path="url(#p21b635dbb2)" d="M 250.553708 99.03271 
L 250.553708 85.121898 
" style="fill:none;stroke:#1f77b4;stroke-width:1.5;"/>
    <path clip-path="url(#p21b635dbb2)" d="M 266.381555 102.596341 
L 266.381555 88.641102 
" style="fill:none;stroke:#1f77b4;stroke-width:1.5;"/>
    <path clip-path="url(#p21b635dbb2)" d="M 282.209402 102.925554 
L 282.209402 88.730909 
" style="fill:none;stroke:#1f77b4;stroke-width:1.5;"/>
    <path clip-path="url(#p21b635dbb2)" d="M 298.037249 90.904445 
L 298.037249 75.24291 
" style="fill:none;stroke:#1f77b4;stroke-width:1.5;"/>
    <path clip-path="url(#p21b635dbb2)" d="M 313.865095 123.230057 
L 313.865095 110.055983 
" style="fill:none;stroke:#1f77b4;stroke-width:1.5;"/>
    <path clip-path="url(#p21b635dbb2)" d="M 329.692942 95.458203 
L 329.692942 79.89506 
" style="fill:none;stroke:#1f77b4;stroke-width:1.5;"/>
    <path clip-path="url(#p21b635dbb2)" d="M 345.520789 94.33043 
L 345.520789 78.320664 
" style="fill:none;stroke:#1f77b4;stroke-width:1.5;"/>
    <path clip-path="url(#p21b635dbb2)" d="M 361.348636 121.332776 
L 361.348636 108.389565 
" style="fill:none;stroke:#1f77b4;stroke-width:1.5;"/>
    <path clip-path="url(#p21b635dbb2)" d="M 377.176483 157.083772 
L 377.176483 147.687191 
" style="fill:none;stroke:#1f77b4;stroke-width:1.5;"/>
   </g>
   <g id="line2d_17">
    <defs>
     <path d="M 0 1.5 
C 0.397805 1.5 0.77937 1.341951 1.06066 1.06066 
C 1.341951 0.77937 1.5 0.397805 1.5 0 
C 1.5 -0.397805 1.341951 -0.77937 1.06066 -1.06066 
C 0.77937 -1.341951 0.397805 -1.5 0 -1.5 
C -0.397805 -1.5 -0.77937 -1.341951 -1.06066 -1.06066 
C -1.341951 -0.77937 -1.5 -0.397805 -1.5 0 
C -1.5 0.397805 -1.341951 0.77937 -1.06066 1.06066 
C -0.77937 1.341951 -0.397805 1.5 0 1.5 
z
" id="mb8bc26594a" style="stroke:#1f77b4;"/>
    </defs>
    <g clip-path="url(#p21b635dbb2)">
     <use style="fill:#1f77b4;stroke:#1f77b4;" x="76.447392" xlink:href="#mb8bc26594a" y="46.131035"/>
     <use style="fill:#1f77b4;stroke:#1f77b4;" x="92.275239" xlink:href="#mb8bc26594a" y="61.169227"/>
     <use style="fill:#1f77b4;stroke:#1f77b4;" x="108.103086" xlink:href="#mb8bc26594a" y="72.432121"/>
     <use style="fill:#1f77b4;stroke:#1f77b4;" x="123.930933" xlink:href="#mb8bc26594a" y="60.337828"/>
     <use style="fill:#1f77b4;stroke:#1f77b4;" x="139.75878" xlink:href="#mb8bc26594a" y="59.905019"/>
     <use style="fill:#1f77b4;stroke:#1f77b4;" x="155.586626" xlink:href="#mb8bc26594a" y="68.720189"/>
     <use style="fill:#1f77b4;stroke:#1f77b4;" x="171.414473" xlink:href="#mb8bc26594a" y="81.449471"/>
     <use style="fill:#1f77b4;stroke:#1f77b4;" x="187.24232" xlink:href="#mb8bc26594a" y="64.77342"/>
     <use style="fill:#1f77b4;stroke:#1f77b4;" x="203.070167" xlink:href="#mb8bc26594a" y="105.001174"/>
     <use style="fill:#1f77b4;stroke:#1f77b4;" x="218.898014" xlink:href="#mb8bc26594a" y="95.27332"/>
     <use style="fill:#1f77b4;stroke:#1f77b4;" x="234.725861" xlink:href="#mb8bc26594a" y="86.131701"/>
     <use style="fill:#1f77b4;stroke:#1f77b4;" x="250.553708" xlink:href="#mb8bc26594a" y="92.077304"/>
     <use style="fill:#1f77b4;stroke:#1f77b4;" x="266.381555" xlink:href="#mb8bc26594a" y="95.618722"/>
     <use style="fill:#1f77b4;stroke:#1f77b4;" x="282.209402" xlink:href="#mb8bc26594a" y="95.828231"/>
     <use style="fill:#1f77b4;stroke:#1f77b4;" x="298.037249" xlink:href="#mb8bc26594a" y="83.073678"/>
     <use style="fill:#1f77b4;stroke:#1f77b4;" x="313.865095" xlink:href="#mb8bc26594a" y="116.64302"/>
     <use style="fill:#1f77b4;stroke:#1f77b4;" x="329.692942" xlink:href="#mb8bc26594a" y="87.676632"/>
     <use style="fill:#1f77b4;stroke:#1f77b4;" x="345.520789" xlink:href="#mb8bc26594a" y="86.325547"/>
     <use style="fill:#1f77b4;stroke:#1f77b4;" x="361.348636" xlink:href="#mb8bc26594a" y="114.861171"/>
     <use style="fill:#1f77b4;stroke:#1f77b4;" x="377.176483" xlink:href="#mb8bc26594a" y="152.385482"/>
    </g>
   </g>
   <g id="patch_3">
    <path d="M 61.410938 248.99625 
L 61.410938 31.43625 
" style="fill:none;stroke:#000000;stroke-linecap:square;stroke-linejoin:miter;stroke-width:0.8;"/>
   </g>
   <g id="patch_4">
    <path d="M 392.212938 248.99625 
L 392.212938 31.43625 
" style="fill:none;stroke:#000000;stroke-linecap:square;stroke-linejoin:miter;stroke-width:0.8;"/>
   </g>
   <g id="patch_5">
    <path d="M 61.410938 248.99625 
L 392.212938 248.99625 
" style="fill:none;stroke:#000000;stroke-linecap:square;stroke-linejoin:miter;stroke-width:0.8;"/>
   </g>
   <g id="patch_6">
    <path d="M 61.410938 31.43625 
L 392.212938 31.43625 
" style="fill:none;stroke:#000000;stroke-linecap:square;stroke-linejoin:miter;stroke-width:0.8;"/>
   </g>
   <g id="text_11">
    <!-- Cs F3 diagonal -->
    <g transform="translate(138.458188 25.43625)scale(0.24 -0.24)">
     <defs>
      <path d="M 64.40625 67.28125 
L 64.40625 56.890625 
Q 59.421875 61.53125 53.78125 63.8125 
Q 48.140625 66.109375 41.796875 66.109375 
Q 29.296875 66.109375 22.65625 58.46875 
Q 16.015625 50.828125 16.015625 36.375 
Q 16.015625 21.96875 22.65625 14.328125 
Q 29.296875 6.6875 41.796875 6.6875 
Q 48.140625 6.6875 53.78125 8.984375 
Q 59.421875 11.28125 64.40625 15.921875 
L 64.40625 5.609375 
Q 59.234375 2.09375 53.4375 0.328125 
Q 47.65625 -1.421875 41.21875 -1.421875 
Q 24.65625 -1.421875 15.125 8.703125 
Q 5.609375 18.84375 5.609375 36.375 
Q 5.609375 53.953125 15.125 64.078125 
Q 24.65625 74.21875 41.21875 74.21875 
Q 47.75 74.21875 53.53125 72.484375 
Q 59.328125 70.75 64.40625 67.28125 
z
" id="DejaVuSans-67"/>
      <path d="M 44.28125 53.078125 
L 44.28125 44.578125 
Q 40.484375 46.53125 36.375 47.5 
Q 32.28125 48.484375 27.875 48.484375 
Q 21.1875 48.484375 17.84375 46.4375 
Q 14.5 44.390625 14.5 40.28125 
Q 14.5 37.15625 16.890625 35.375 
Q 19.28125 33.59375 26.515625 31.984375 
L 29.59375 31.296875 
Q 39.15625 29.25 43.1875 25.515625 
Q 47.21875 21.78125 47.21875 15.09375 
Q 47.21875 7.46875 41.1875 3.015625 
Q 35.15625 -1.421875 24.609375 -1.421875 
Q 20.21875 -1.421875 15.453125 -0.5625 
Q 10.6875 0.296875 5.421875 2 
L 5.421875 11.28125 
Q 10.40625 8.6875 15.234375 7.390625 
Q 20.0625 6.109375 24.8125 6.109375 
Q 31.15625 6.109375 34.5625 8.28125 
Q 37.984375 10.453125 37.984375 14.40625 
Q 37.984375 18.0625 35.515625 20.015625 
Q 33.0625 21.96875 24.703125 23.78125 
L 21.578125 24.515625 
Q 13.234375 26.265625 9.515625 29.90625 
Q 5.8125 33.546875 5.8125 39.890625 
Q 5.8125 47.609375 11.28125 51.796875 
Q 16.75 56 26.8125 56 
Q 31.78125 56 36.171875 55.265625 
Q 40.578125 54.546875 44.28125 53.078125 
z
" id="DejaVuSans-115"/>
      <path d="M 9.8125 72.90625 
L 51.703125 72.90625 
L 51.703125 64.59375 
L 19.671875 64.59375 
L 19.671875 43.109375 
L 48.578125 43.109375 
L 48.578125 34.8125 
L 19.671875 34.8125 
L 19.671875 0 
L 9.8125 0 
z
" id="DejaVuSans-70"/>
      <path d="M 45.40625 46.390625 
L 45.40625 75.984375 
L 54.390625 75.984375 
L 54.390625 0 
L 45.40625 0 
L 45.40625 8.203125 
Q 42.578125 3.328125 38.25 0.953125 
Q 33.9375 -1.421875 27.875 -1.421875 
Q 17.96875 -1.421875 11.734375 6.484375 
Q 5.515625 14.40625 5.515625 27.296875 
Q 5.515625 40.1875 11.734375 48.09375 
Q 17.96875 56 27.875 56 
Q 33.9375 56 38.25 53.625 
Q 42.578125 51.265625 45.40625 46.390625 
z
M 14.796875 27.296875 
Q 14.796875 17.390625 18.875 11.75 
Q 22.953125 6.109375 30.078125 6.109375 
Q 37.203125 6.109375 41.296875 11.75 
Q 45.40625 17.390625 45.40625 27.296875 
Q 45.40625 37.203125 41.296875 42.84375 
Q 37.203125 48.484375 30.078125 48.484375 
Q 22.953125 48.484375 18.875 42.84375 
Q 14.796875 37.203125 14.796875 27.296875 
z
" id="DejaVuSans-100"/>
      <path d="M 34.28125 27.484375 
Q 23.390625 27.484375 19.1875 25 
Q 14.984375 22.515625 14.984375 16.5 
Q 14.984375 11.71875 18.140625 8.90625 
Q 21.296875 6.109375 26.703125 6.109375 
Q 34.1875 6.109375 38.703125 11.40625 
Q 43.21875 16.703125 43.21875 25.484375 
L 43.21875 27.484375 
z
M 52.203125 31.203125 
L 52.203125 0 
L 43.21875 0 
L 43.21875 8.296875 
Q 40.140625 3.328125 35.546875 0.953125 
Q 30.953125 -1.421875 24.3125 -1.421875 
Q 15.921875 -1.421875 10.953125 3.296875 
Q 6 8.015625 6 15.921875 
Q 6 25.140625 12.171875 29.828125 
Q 18.359375 34.515625 30.609375 34.515625 
L 43.21875 34.515625 
L 43.21875 35.40625 
Q 43.21875 41.609375 39.140625 45 
Q 35.0625 48.390625 27.6875 48.390625 
Q 23 48.390625 18.546875 47.265625 
Q 14.109375 46.140625 10.015625 43.890625 
L 10.015625 52.203125 
Q 14.9375 54.109375 19.578125 55.046875 
Q 24.21875 56 28.609375 56 
Q 40.484375 56 46.34375 49.84375 
Q 52.203125 43.703125 52.203125 31.203125 
z
" id="DejaVuSans-97"/>
      <path d="M 45.40625 27.984375 
Q 45.40625 37.75 41.375 43.109375 
Q 37.359375 48.484375 30.078125 48.484375 
Q 22.859375 48.484375 18.828125 43.109375 
Q 14.796875 37.75 14.796875 27.984375 
Q 14.796875 18.265625 18.828125 12.890625 
Q 22.859375 7.515625 30.078125 7.515625 
Q 37.359375 7.515625 41.375 12.890625 
Q 45.40625 18.265625 45.40625 27.984375 
z
M 54.390625 6.78125 
Q 54.390625 -7.171875 48.1875 -13.984375 
Q 42 -20.796875 29.203125 -20.796875 
Q 24.46875 -20.796875 20.265625 -20.09375 
Q 16.0625 -19.390625 12.109375 -17.921875 
L 12.109375 -9.1875 
Q 16.0625 -11.328125 19.921875 -12.34375 
Q 23.78125 -13.375 27.78125 -13.375 
Q 36.625 -13.375 41.015625 -8.765625 
Q 45.40625 -4.15625 45.40625 5.171875 
L 45.40625 9.625 
Q 42.625 4.78125 38.28125 2.390625 
Q 33.9375 0 27.875 0 
Q 17.828125 0 11.671875 7.65625 
Q 5.515625 15.328125 5.515625 27.984375 
Q 5.515625 40.671875 11.671875 48.328125 
Q 17.828125 56 27.875 56 
Q 33.9375 56 38.28125 53.609375 
Q 42.625 51.21875 45.40625 46.390625 
L 45.40625 54.6875 
L 54.390625 54.6875 
z
" id="DejaVuSans-103"/>
      <path d="M 30.609375 48.390625 
Q 23.390625 48.390625 19.1875 42.75 
Q 14.984375 37.109375 14.984375 27.296875 
Q 14.984375 17.484375 19.15625 11.84375 
Q 23.34375 6.203125 30.609375 6.203125 
Q 37.796875 6.203125 41.984375 11.859375 
Q 46.1875 17.53125 46.1875 27.296875 
Q 46.1875 37.015625 41.984375 42.703125 
Q 37.796875 48.390625 30.609375 48.390625 
z
M 30.609375 56 
Q 42.328125 56 49.015625 48.375 
Q 55.71875 40.765625 55.71875 27.296875 
Q 55.71875 13.875 49.015625 6.21875 
Q 42.328125 -1.421875 30.609375 -1.421875 
Q 18.84375 -1.421875 12.171875 6.21875 
Q 5.515625 13.875 5.515625 27.296875 
Q 5.515625 40.765625 12.171875 48.375 
Q 18.84375 56 30.609375 56 
z
" id="DejaVuSans-111"/>
      <path d="M 54.890625 33.015625 
L 54.890625 0 
L 45.90625 0 
L 45.90625 32.71875 
Q 45.90625 40.484375 42.875 44.328125 
Q 39.84375 48.1875 33.796875 48.1875 
Q 26.515625 48.1875 22.3125 43.546875 
Q 18.109375 38.921875 18.109375 30.90625 
L 18.109375 0 
L 9.078125 0 
L 9.078125 54.6875 
L 18.109375 54.6875 
L 18.109375 46.1875 
Q 21.34375 51.125 25.703125 53.5625 
Q 30.078125 56 35.796875 56 
Q 45.21875 56 50.046875 50.171875 
Q 54.890625 44.34375 54.890625 33.015625 
z
" id="DejaVuSans-110"/>
      <path d="M 9.421875 75.984375 
L 18.40625 75.984375 
L 18.40625 0 
L 9.421875 0 
z
" id="DejaVuSans-108"/>
     </defs>
     <use xlink:href="#DejaVuSans-67"/>
     <use x="69.824219" xlink:href="#DejaVuSans-115"/>
     <use x="121.923828" xlink:href="#DejaVuSans-32"/>
     <use x="153.710938" xlink:href="#DejaVuSans-70"/>
     <use x="211.230469" xlink:href="#DejaVuSans-51"/>
     <use x="274.853516" xlink:href="#DejaVuSans-32"/>
     <use x="306.640625" xlink:href="#DejaVuSans-100"/>
     <use x="370.117188" xlink:href="#DejaVuSans-105"/>
     <use x="397.900391" xlink:href="#DejaVuSans-97"/>
     <use x="459.179688" xlink:href="#DejaVuSans-103"/>
     <use x="522.65625" xlink:href="#DejaVuSans-111"/>
     <use x="583.837891" xlink:href="#DejaVuSans-110"/>
     <use x="647.216797" xlink:href="#DejaVuSans-97"/>
     <use x="708.496094" xlink:href="#DejaVuSans-108"/>
    </g>
   </g>
  </g>
  <g id="axes_2">
   <g id="patch_7">
    <path d="M 458.610938 248.99625 
L 789.412938 248.99625 
L 789.412938 31.43625 
L 458.610938 31.43625 
z
" style="fill:none;"/>
   </g>
   <g id="matplotlib.axis_3">
    <g id="xtick_5">
     <g id="line2d_18">
      <path clip-path="url(#p577a38a7ea)" d="M 536.95878 248.99625 
L 536.95878 31.43625 
" style="fill:none;stroke:#b0b0b0;stroke-linecap:square;stroke-width:0.8;"/>
     </g>
     <g id="line2d_19">
      <g>
       <use style="stroke:#000000;stroke-width:0.8;" x="536.95878" xlink:href="#m005f0a59be" y="248.99625"/>
      </g>
     </g>
     <g id="text_12">
      <!-- 5 -->
      <g transform="translate(532.186905 267.393906)scale(0.15 -0.15)">
       <use xlink:href="#DejaVuSans-53"/>
      </g>
     </g>
    </g>
    <g id="xtick_6">
     <g id="line2d_20">
      <path clip-path="url(#p577a38a7ea)" d="M 616.098014 248.99625 
L 616.098014 31.43625 
" style="fill:none;stroke:#b0b0b0;stroke-linecap:square;stroke-width:0.8;"/>
     </g>
     <g id="line2d_21">
      <g>
       <use style="stroke:#000000;stroke-width:0.8;" x="616.098014" xlink:href="#m005f0a59be" y="248.99625"/>
      </g>
     </g>
     <g id="text_13">
      <!-- 10 -->
      <g transform="translate(606.554264 267.393906)scale(0.15 -0.15)">
       <use xlink:href="#DejaVuSans-49"/>
       <use x="63.623047" xlink:href="#DejaVuSans-48"/>
      </g>
     </g>
    </g>
    <g id="xtick_7">
     <g id="line2d_22">
      <path clip-path="url(#p577a38a7ea)" d="M 695.237249 248.99625 
L 695.237249 31.43625 
" style="fill:none;stroke:#b0b0b0;stroke-linecap:square;stroke-width:0.8;"/>
     </g>
     <g id="line2d_23">
      <g>
       <use style="stroke:#000000;stroke-width:0.8;" x="695.237249" xlink:href="#m005f0a59be" y="248.99625"/>
      </g>
     </g>
     <g id="text_14">
      <!-- 15 -->
      <g transform="translate(685.693499 267.393906)scale(0.15 -0.15)">
       <use xlink:href="#DejaVuSans-49"/>
       <use x="63.623047" xlink:href="#DejaVuSans-53"/>
      </g>
     </g>
    </g>
    <g id="xtick_8">
     <g id="line2d_24">
      <path clip-path="url(#p577a38a7ea)" d="M 774.376483 248.99625 
L 774.376483 31.43625 
" style="fill:none;stroke:#b0b0b0;stroke-linecap:square;stroke-width:0.8;"/>
     </g>
     <g id="line2d_25">
      <g>
       <use style="stroke:#000000;stroke-width:0.8;" x="774.376483" xlink:href="#m005f0a59be" y="248.99625"/>
      </g>
     </g>
     <g id="text_15">
      <!-- 20 -->
      <g transform="translate(764.832733 267.393906)scale(0.15 -0.15)">
       <use xlink:href="#DejaVuSans-50"/>
       <use x="63.623047" xlink:href="#DejaVuSans-48"/>
      </g>
     </g>
    </g>
    <g id="text_16">
     <!-- Site # -->
     <g transform="translate(593.254125 289.710312)scale(0.2 -0.2)">
      <use xlink:href="#DejaVuSans-83"/>
      <use x="63.476562" xlink:href="#DejaVuSans-105"/>
      <use x="91.259766" xlink:href="#DejaVuSans-116"/>
      <use x="130.46875" xlink:href="#DejaVuSans-101"/>
      <use x="191.992188" xlink:href="#DejaVuSans-32"/>
      <use x="223.779297" xlink:href="#DejaVuSans-35"/>
     </g>
    </g>
   </g>
   <g id="matplotlib.axis_4">
    <g id="ytick_5">
     <g id="line2d_26">
      <path clip-path="url(#p577a38a7ea)" d="M 458.610938 248.99625 
L 789.412938 248.99625 
" style="fill:none;stroke:#b0b0b0;stroke-linecap:square;stroke-width:0.8;"/>
     </g>
     <g id="line2d_27">
      <g>
       <use style="stroke:#000000;stroke-width:0.8;" x="458.610938" xlink:href="#mc3ce260a5b" y="248.99625"/>
      </g>
     </g>
     <g id="text_17">
      <!-- 0.0 -->
      <g transform="translate(427.75625 254.695078)scale(0.15 -0.15)">
       <defs>
        <path d="M 10.6875 12.40625 
L 21 12.40625 
L 21 0 
L 10.6875 0 
z
" id="DejaVuSans-46"/>
       </defs>
       <use xlink:href="#DejaVuSans-48"/>
       <use x="63.623047" xlink:href="#DejaVuSans-46"/>
       <use x="95.410156" xlink:href="#DejaVuSans-48"/>
      </g>
     </g>
    </g>
    <g id="ytick_6">
     <g id="line2d_28">
      <path clip-path="url(#p577a38a7ea)" d="M 458.610938 205.620147 
L 789.412938 205.620147 
" style="fill:none;stroke:#b0b0b0;stroke-linecap:square;stroke-width:0.8;"/>
     </g>
     <g id="line2d_29">
      <g>
       <use style="stroke:#000000;stroke-width:0.8;" x="458.610938" xlink:href="#mc3ce260a5b" y="205.620147"/>
      </g>
     </g>
     <g id="text_18">
      <!-- 0.5 -->
      <g transform="translate(427.75625 211.318975)scale(0.15 -0.15)">
       <use xlink:href="#DejaVuSans-48"/>
       <use x="63.623047" xlink:href="#DejaVuSans-46"/>
       <use x="95.410156" xlink:href="#DejaVuSans-53"/>
      </g>
     </g>
    </g>
    <g id="ytick_7">
     <g id="line2d_30">
      <path clip-path="url(#p577a38a7ea)" d="M 458.610938 162.244044 
L 789.412938 162.244044 
" style="fill:none;stroke:#b0b0b0;stroke-linecap:square;stroke-width:0.8;"/>
     </g>
     <g id="line2d_31">
      <g>
       <use style="stroke:#000000;stroke-width:0.8;" x="458.610938" xlink:href="#mc3ce260a5b" y="162.244044"/>
      </g>
     </g>
     <g id="text_19">
      <!-- 1.0 -->
      <g transform="translate(427.75625 167.942872)scale(0.15 -0.15)">
       <use xlink:href="#DejaVuSans-49"/>
       <use x="63.623047" xlink:href="#DejaVuSans-46"/>
       <use x="95.410156" xlink:href="#DejaVuSans-48"/>
      </g>
     </g>
    </g>
    <g id="ytick_8">
     <g id="line2d_32">
      <path clip-path="url(#p577a38a7ea)" d="M 458.610938 118.867941 
L 789.412938 118.867941 
" style="fill:none;stroke:#b0b0b0;stroke-linecap:square;stroke-width:0.8;"/>
     </g>
     <g id="line2d_33">
      <g>
       <use style="stroke:#000000;stroke-width:0.8;" x="458.610938" xlink:href="#mc3ce260a5b" y="118.867941"/>
      </g>
     </g>
     <g id="text_20">
      <!-- 1.5 -->
      <g transform="translate(427.75625 124.56677)scale(0.15 -0.15)">
       <use xlink:href="#DejaVuSans-49"/>
       <use x="63.623047" xlink:href="#DejaVuSans-46"/>
       <use x="95.410156" xlink:href="#DejaVuSans-53"/>
      </g>
     </g>
    </g>
    <g id="ytick_9">
     <g id="line2d_34">
      <path clip-path="url(#p577a38a7ea)" d="M 458.610938 75.491839 
L 789.412938 75.491839 
" style="fill:none;stroke:#b0b0b0;stroke-linecap:square;stroke-width:0.8;"/>
     </g>
     <g id="line2d_35">
      <g>
       <use style="stroke:#000000;stroke-width:0.8;" x="458.610938" xlink:href="#mc3ce260a5b" y="75.491839"/>
      </g>
     </g>
     <g id="text_21">
      <!-- 2.0 -->
      <g transform="translate(427.75625 81.190667)scale(0.15 -0.15)">
       <use xlink:href="#DejaVuSans-50"/>
       <use x="63.623047" xlink:href="#DejaVuSans-46"/>
       <use x="95.410156" xlink:href="#DejaVuSans-48"/>
      </g>
     </g>
    </g>
    <g id="ytick_10">
     <g id="line2d_36">
      <path clip-path="url(#p577a38a7ea)" d="M 458.610938 32.115736 
L 789.412938 32.115736 
" style="fill:none;stroke:#b0b0b0;stroke-linecap:square;stroke-width:0.8;"/>
     </g>
     <g id="line2d_37">
      <g>
       <use style="stroke:#000000;stroke-width:0.8;" x="458.610938" xlink:href="#mc3ce260a5b" y="32.115736"/>
      </g>
     </g>
     <g id="text_22">
      <!-- 2.5 -->
      <g transform="translate(427.75625 37.814564)scale(0.15 -0.15)">
       <use xlink:href="#DejaVuSans-50"/>
       <use x="63.623047" xlink:href="#DejaVuSans-46"/>
       <use x="95.410156" xlink:href="#DejaVuSans-53"/>
      </g>
     </g>
    </g>
    <g id="text_23">
     <!-- $ \tau_{F4} (ms)$ -->
     <g transform="translate(419.596875 177.81625)rotate(-90)scale(0.2 -0.2)">
      <defs>
       <path d="M 37.796875 64.3125 
L 12.890625 25.390625 
L 37.796875 25.390625 
z
M 35.203125 72.90625 
L 47.609375 72.90625 
L 47.609375 25.390625 
L 58.015625 25.390625 
L 58.015625 17.1875 
L 47.609375 17.1875 
L 47.609375 0 
L 37.796875 0 
L 37.796875 17.1875 
L 4.890625 17.1875 
L 4.890625 26.703125 
z
" id="DejaVuSans-52"/>
      </defs>
      <use transform="translate(0 0.125)" xlink:href="#DejaVuSans-Oblique-964"/>
      <use transform="translate(60.205078 -16.28125)scale(0.7)" xlink:href="#DejaVuSans-Oblique-70"/>
      <use transform="translate(100.46875 -16.28125)scale(0.7)" xlink:href="#DejaVuSans-52"/>
      <use transform="translate(147.739258 0.125)" xlink:href="#DejaVuSans-40"/>
      <use transform="translate(186.75293 0.125)" xlink:href="#DejaVuSans-Oblique-109"/>
      <use transform="translate(284.165039 0.125)" xlink:href="#DejaVuSans-Oblique-115"/>
      <use transform="translate(336.264648 0.125)" xlink:href="#DejaVuSans-41"/>
     </g>
    </g>
   </g>
   <g id="LineCollection_2">
    <path clip-path="url(#p577a38a7ea)" d="M 473.647392 70.284739 
L 473.647392 55.382494 
" style="fill:none;stroke:#1f77b4;stroke-width:1.5;"/>
    <path clip-path="url(#p577a38a7ea)" d="M 489.475239 53.018122 
L 489.475239 36.398236 
" style="fill:none;stroke:#1f77b4;stroke-width:1.5;"/>
    <path clip-path="url(#p577a38a7ea)" d="M 505.303086 66.37756 
L 505.303086 51.325733 
" style="fill:none;stroke:#1f77b4;stroke-width:1.5;"/>
    <path clip-path="url(#p577a38a7ea)" d="M 521.130933 55.170981 
L 521.130933 39.728536 
" style="fill:none;stroke:#1f77b4;stroke-width:1.5;"/>
    <path clip-path="url(#p577a38a7ea)" d="M 536.95878 66.089716 
L 536.95878 51.626859 
" style="fill:none;stroke:#1f77b4;stroke-width:1.5;"/>
    <path clip-path="url(#p577a38a7ea)" d="M 552.786626 56.767422 
L 552.786626 41.549765 
" style="fill:none;stroke:#1f77b4;stroke-width:1.5;"/>
    <path clip-path="url(#p577a38a7ea)" d="M 568.614473 68.849922 
L 568.614473 54.531609 
" style="fill:none;stroke:#1f77b4;stroke-width:1.5;"/>
    <path clip-path="url(#p577a38a7ea)" d="M 584.44232 70.692851 
L 584.44232 56.110855 
" style="fill:none;stroke:#1f77b4;stroke-width:1.5;"/>
    <path clip-path="url(#p577a38a7ea)" d="M 600.270167 102.517036 
L 600.270167 90.17086 
" style="fill:none;stroke:#1f77b4;stroke-width:1.5;"/>
    <path clip-path="url(#p577a38a7ea)" d="M 616.098014 91.418998 
L 616.098014 78.242407 
" style="fill:none;stroke:#1f77b4;stroke-width:1.5;"/>
    <path clip-path="url(#p577a38a7ea)" d="M 631.925861 81.637558 
L 631.925861 67.058761 
" style="fill:none;stroke:#1f77b4;stroke-width:1.5;"/>
    <path clip-path="url(#p577a38a7ea)" d="M 647.753708 93.563583 
L 647.753708 80.363209 
" style="fill:none;stroke:#1f77b4;stroke-width:1.5;"/>
    <path clip-path="url(#p577a38a7ea)" d="M 663.581555 88.033421 
L 663.581555 73.692207 
" style="fill:none;stroke:#1f77b4;stroke-width:1.5;"/>
    <path clip-path="url(#p577a38a7ea)" d="M 679.409402 95.645433 
L 679.409402 81.361515 
" style="fill:none;stroke:#1f77b4;stroke-width:1.5;"/>
    <path clip-path="url(#p577a38a7ea)" d="M 695.237249 87.635959 
L 695.237249 72.654996 
" style="fill:none;stroke:#1f77b4;stroke-width:1.5;"/>
    <path clip-path="url(#p577a38a7ea)" d="M 711.065095 110.695925 
L 711.065095 96.893114 
" style="fill:none;stroke:#1f77b4;stroke-width:1.5;"/>
    <path clip-path="url(#p577a38a7ea)" d="M 726.892942 94.243711 
L 726.892942 79.184377 
" style="fill:none;stroke:#1f77b4;stroke-width:1.5;"/>
    <path clip-path="url(#p577a38a7ea)" d="M 742.720789 91.831635 
L 742.720789 76.300964 
" style="fill:none;stroke:#1f77b4;stroke-width:1.5;"/>
    <path clip-path="url(#p577a38a7ea)" d="M 758.548636 109.397403 
L 758.548636 96.217466 
" style="fill:none;stroke:#1f77b4;stroke-width:1.5;"/>
    <path clip-path="url(#p577a38a7ea)" d="M 774.376483 135.637952 
L 774.376483 124.912966 
" style="fill:none;stroke:#1f77b4;stroke-width:1.5;"/>
   </g>
   <g id="line2d_38">
    <g clip-path="url(#p577a38a7ea)">
     <use style="fill:#1f77b4;stroke:#1f77b4;" x="473.647392" xlink:href="#mb8bc26594a" y="62.833617"/>
     <use style="fill:#1f77b4;stroke:#1f77b4;" x="489.475239" xlink:href="#mb8bc26594a" y="44.708179"/>
     <use style="fill:#1f77b4;stroke:#1f77b4;" x="505.303086" xlink:href="#mb8bc26594a" y="58.851646"/>
     <use style="fill:#1f77b4;stroke:#1f77b4;" x="521.130933" xlink:href="#mb8bc26594a" y="47.449758"/>
     <use style="fill:#1f77b4;stroke:#1f77b4;" x="536.95878" xlink:href="#mb8bc26594a" y="58.858287"/>
     <use style="fill:#1f77b4;stroke:#1f77b4;" x="552.786626" xlink:href="#mb8bc26594a" y="49.158594"/>
     <use style="fill:#1f77b4;stroke:#1f77b4;" x="568.614473" xlink:href="#mb8bc26594a" y="61.690766"/>
     <use style="fill:#1f77b4;stroke:#1f77b4;" x="584.44232" xlink:href="#mb8bc26594a" y="63.401853"/>
     <use style="fill:#1f77b4;stroke:#1f77b4;" x="600.270167" xlink:href="#mb8bc26594a" y="96.343948"/>
     <use style="fill:#1f77b4;stroke:#1f77b4;" x="616.098014" xlink:href="#mb8bc26594a" y="84.830703"/>
     <use style="fill:#1f77b4;stroke:#1f77b4;" x="631.925861" xlink:href="#mb8bc26594a" y="74.34816"/>
     <use style="fill:#1f77b4;stroke:#1f77b4;" x="647.753708" xlink:href="#mb8bc26594a" y="86.963396"/>
     <use style="fill:#1f77b4;stroke:#1f77b4;" x="663.581555" xlink:href="#mb8bc26594a" y="80.862814"/>
     <use style="fill:#1f77b4;stroke:#1f77b4;" x="679.409402" xlink:href="#mb8bc26594a" y="88.503474"/>
     <use style="fill:#1f77b4;stroke:#1f77b4;" x="695.237249" xlink:href="#mb8bc26594a" y="80.145478"/>
     <use style="fill:#1f77b4;stroke:#1f77b4;" x="711.065095" xlink:href="#mb8bc26594a" y="103.794519"/>
     <use style="fill:#1f77b4;stroke:#1f77b4;" x="726.892942" xlink:href="#mb8bc26594a" y="86.714044"/>
     <use style="fill:#1f77b4;stroke:#1f77b4;" x="742.720789" xlink:href="#mb8bc26594a" y="84.0663"/>
     <use style="fill:#1f77b4;stroke:#1f77b4;" x="758.548636" xlink:href="#mb8bc26594a" y="102.807434"/>
     <use style="fill:#1f77b4;stroke:#1f77b4;" x="774.376483" xlink:href="#mb8bc26594a" y="130.275459"/>
    </g>
   </g>
   <g id="patch_8">
    <path d="M 458.610938 248.99625 
L 458.610938 31.43625 
" style="fill:none;stroke:#000000;stroke-linecap:square;stroke-linejoin:miter;stroke-width:0.8;"/>
   </g>
   <g id="patch_9">
    <path d="M 789.412938 248.99625 
L 789.412938 31.43625 
" style="fill:none;stroke:#000000;stroke-linecap:square;stroke-linejoin:miter;stroke-width:0.8;"/>
   </g>
   <g id="patch_10">
    <path d="M 458.610938 248.99625 
L 789.412938 248.99625 
" style="fill:none;stroke:#000000;stroke-linecap:square;stroke-linejoin:miter;stroke-width:0.8;"/>
   </g>
   <g id="patch_11">
    <path d="M 458.610938 31.43625 
L 789.412938 31.43625 
" style="fill:none;stroke:#000000;stroke-linecap:square;stroke-linejoin:miter;stroke-width:0.8;"/>
   </g>
   <g id="text_24">
    <!-- Cs F4 diagonal -->
    <g transform="translate(535.658188 25.43625)scale(0.24 -0.24)">
     <use xlink:href="#DejaVuSans-67"/>
     <use x="69.824219" xlink:href="#DejaVuSans-115"/>
     <use x="121.923828" xlink:href="#DejaVuSans-32"/>
     <use x="153.710938" xlink:href="#DejaVuSans-70"/>
     <use x="211.230469" xlink:href="#DejaVuSans-52"/>
     <use x="274.853516" xlink:href="#DejaVuSans-32"/>
     <use x="306.640625" xlink:href="#DejaVuSans-100"/>
     <use x="370.117188" xlink:href="#DejaVuSans-105"/>
     <use x="397.900391" xlink:href="#DejaVuSans-97"/>
     <use x="459.179688" xlink:href="#DejaVuSans-103"/>
     <use x="522.65625" xlink:href="#DejaVuSans-111"/>
     <use x="583.837891" xlink:href="#DejaVuSans-110"/>
     <use x="647.216797" xlink:href="#DejaVuSans-97"/>
     <use x="708.496094" xlink:href="#DejaVuSans-108"/>
    </g>
   </g>
  </g>
  <g id="axes_3">
   <g id="patch_12">
    <path d="M 61.410938 547.39625 
L 392.212938 547.39625 
L 392.212938 329.83625 
L 61.410938 329.83625 
z
" style="fill:none;"/>
   </g>
   <g id="matplotlib.axis_5">
    <g id="xtick_9">
     <g id="line2d_39">
      <path clip-path="url(#pbf5d8ee3a7)" d="M 139.75878 547.39625 
L 139.75878 329.83625 
" style="fill:none;stroke:#b0b0b0;stroke-linecap:square;stroke-width:0.8;"/>
     </g>
     <g id="line2d_40">
      <g>
       <use style="stroke:#000000;stroke-width:0.8;" x="139.75878" xlink:href="#m005f0a59be" y="547.39625"/>
      </g>
     </g>
     <g id="text_25">
      <!-- 5 -->
      <g transform="translate(134.986905 565.793906)scale(0.15 -0.15)">
       <use xlink:href="#DejaVuSans-53"/>
      </g>
     </g>
    </g>
    <g id="xtick_10">
     <g id="line2d_41">
      <path clip-path="url(#pbf5d8ee3a7)" d="M 218.898014 547.39625 
L 218.898014 329.83625 
" style="fill:none;stroke:#b0b0b0;stroke-linecap:square;stroke-width:0.8;"/>
     </g>
     <g id="line2d_42">
      <g>
       <use style="stroke:#000000;stroke-width:0.8;" x="218.898014" xlink:href="#m005f0a59be" y="547.39625"/>
      </g>
     </g>
     <g id="text_26">
      <!-- 10 -->
      <g transform="translate(209.354264 565.793906)scale(0.15 -0.15)">
       <use xlink:href="#DejaVuSans-49"/>
       <use x="63.623047" xlink:href="#DejaVuSans-48"/>
      </g>
     </g>
    </g>
    <g id="xtick_11">
     <g id="line2d_43">
      <path clip-path="url(#pbf5d8ee3a7)" d="M 298.037249 547.39625 
L 298.037249 329.83625 
" style="fill:none;stroke:#b0b0b0;stroke-linecap:square;stroke-width:0.8;"/>
     </g>
     <g id="line2d_44">
      <g>
       <use style="stroke:#000000;stroke-width:0.8;" x="298.037249" xlink:href="#m005f0a59be" y="547.39625"/>
      </g>
     </g>
     <g id="text_27">
      <!-- 15 -->
      <g transform="translate(288.493499 565.793906)scale(0.15 -0.15)">
       <use xlink:href="#DejaVuSans-49"/>
       <use x="63.623047" xlink:href="#DejaVuSans-53"/>
      </g>
     </g>
    </g>
    <g id="xtick_12">
     <g id="line2d_45">
      <path clip-path="url(#pbf5d8ee3a7)" d="M 377.176483 547.39625 
L 377.176483 329.83625 
" style="fill:none;stroke:#b0b0b0;stroke-linecap:square;stroke-width:0.8;"/>
     </g>
     <g id="line2d_46">
      <g>
       <use style="stroke:#000000;stroke-width:0.8;" x="377.176483" xlink:href="#m005f0a59be" y="547.39625"/>
      </g>
     </g>
     <g id="text_28">
      <!-- 20 -->
      <g transform="translate(367.632733 565.793906)scale(0.15 -0.15)">
       <use xlink:href="#DejaVuSans-50"/>
       <use x="63.623047" xlink:href="#DejaVuSans-48"/>
      </g>
     </g>
    </g>
    <g id="text_29">
     <!-- Site # -->
     <g transform="translate(196.054125 588.110312)scale(0.2 -0.2)">
      <use xlink:href="#DejaVuSans-83"/>
      <use x="63.476562" xlink:href="#DejaVuSans-105"/>
      <use x="91.259766" xlink:href="#DejaVuSans-116"/>
      <use x="130.46875" xlink:href="#DejaVuSans-101"/>
      <use x="191.992188" xlink:href="#DejaVuSans-32"/>
      <use x="223.779297" xlink:href="#DejaVuSans-35"/>
     </g>
    </g>
   </g>
   <g id="matplotlib.axis_6">
    <g id="ytick_11">
     <g id="line2d_47">
      <path clip-path="url(#pbf5d8ee3a7)" d="M 61.410938 547.39625 
L 392.212938 547.39625 
" style="fill:none;stroke:#b0b0b0;stroke-linecap:square;stroke-width:0.8;"/>
     </g>
     <g id="line2d_48">
      <g>
       <use style="stroke:#000000;stroke-width:0.8;" x="61.410938" xlink:href="#mc3ce260a5b" y="547.39625"/>
      </g>
     </g>
     <g id="text_30">
      <!-- 0.0 -->
      <g transform="translate(30.55625 553.095078)scale(0.15 -0.15)">
       <use xlink:href="#DejaVuSans-48"/>
       <use x="63.623047" xlink:href="#DejaVuSans-46"/>
       <use x="95.410156" xlink:href="#DejaVuSans-48"/>
      </g>
     </g>
    </g>
    <g id="ytick_12">
     <g id="line2d_49">
      <path clip-path="url(#pbf5d8ee3a7)" d="M 61.410938 504.893837 
L 392.212938 504.893837 
" style="fill:none;stroke:#b0b0b0;stroke-linecap:square;stroke-width:0.8;"/>
     </g>
     <g id="line2d_50">
      <g>
       <use style="stroke:#000000;stroke-width:0.8;" x="61.410938" xlink:href="#mc3ce260a5b" y="504.893837"/>
      </g>
     </g>
     <g id="text_31">
      <!-- 0.5 -->
      <g transform="translate(30.55625 510.592665)scale(0.15 -0.15)">
       <use xlink:href="#DejaVuSans-48"/>
       <use x="63.623047" xlink:href="#DejaVuSans-46"/>
       <use x="95.410156" xlink:href="#DejaVuSans-53"/>
      </g>
     </g>
    </g>
    <g id="ytick_13">
     <g id="line2d_51">
      <path clip-path="url(#pbf5d8ee3a7)" d="M 61.410938 462.391423 
L 392.212938 462.391423 
" style="fill:none;stroke:#b0b0b0;stroke-linecap:square;stroke-width:0.8;"/>
     </g>
     <g id="line2d_52">
      <g>
       <use style="stroke:#000000;stroke-width:0.8;" x="61.410938" xlink:href="#mc3ce260a5b" y="462.391423"/>
      </g>
     </g>
     <g id="text_32">
      <!-- 1.0 -->
      <g transform="translate(30.55625 468.090251)scale(0.15 -0.15)">
       <use xlink:href="#DejaVuSans-49"/>
       <use x="63.623047" xlink:href="#DejaVuSans-46"/>
       <use x="95.410156" xlink:href="#DejaVuSans-48"/>
      </g>
     </g>
    </g>
    <g id="ytick_14">
     <g id="line2d_53">
      <path clip-path="url(#pbf5d8ee3a7)" d="M 61.410938 419.88901 
L 392.212938 419.88901 
" style="fill:none;stroke:#b0b0b0;stroke-linecap:square;stroke-width:0.8;"/>
     </g>
     <g id="line2d_54">
      <g>
       <use style="stroke:#000000;stroke-width:0.8;" x="61.410938" xlink:href="#mc3ce260a5b" y="419.88901"/>
      </g>
     </g>
     <g id="text_33">
      <!-- 1.5 -->
      <g transform="translate(30.55625 425.587838)scale(0.15 -0.15)">
       <use xlink:href="#DejaVuSans-49"/>
       <use x="63.623047" xlink:href="#DejaVuSans-46"/>
       <use x="95.410156" xlink:href="#DejaVuSans-53"/>
      </g>
     </g>
    </g>
    <g id="ytick_15">
     <g id="line2d_55">
      <path clip-path="url(#pbf5d8ee3a7)" d="M 61.410938 377.386596 
L 392.212938 377.386596 
" style="fill:none;stroke:#b0b0b0;stroke-linecap:square;stroke-width:0.8;"/>
     </g>
     <g id="line2d_56">
      <g>
       <use style="stroke:#000000;stroke-width:0.8;" x="61.410938" xlink:href="#mc3ce260a5b" y="377.386596"/>
      </g>
     </g>
     <g id="text_34">
      <!-- 2.0 -->
      <g transform="translate(30.55625 383.085425)scale(0.15 -0.15)">
       <use xlink:href="#DejaVuSans-50"/>
       <use x="63.623047" xlink:href="#DejaVuSans-46"/>
       <use x="95.410156" xlink:href="#DejaVuSans-48"/>
      </g>
     </g>
    </g>
    <g id="ytick_16">
     <g id="line2d_57">
      <path clip-path="url(#pbf5d8ee3a7)" d="M 61.410938 334.884183 
L 392.212938 334.884183 
" style="fill:none;stroke:#b0b0b0;stroke-linecap:square;stroke-width:0.8;"/>
     </g>
     <g id="line2d_58">
      <g>
       <use style="stroke:#000000;stroke-width:0.8;" x="61.410938" xlink:href="#mc3ce260a5b" y="334.884183"/>
      </g>
     </g>
     <g id="text_35">
      <!-- 2.5 -->
      <g transform="translate(30.55625 340.583011)scale(0.15 -0.15)">
       <use xlink:href="#DejaVuSans-50"/>
       <use x="63.623047" xlink:href="#DejaVuSans-46"/>
       <use x="95.410156" xlink:href="#DejaVuSans-53"/>
      </g>
     </g>
    </g>
    <g id="text_36">
     <!-- $ \tau_{F4} (ms)$ -->
     <g transform="translate(22.396875 476.21625)rotate(-90)scale(0.2 -0.2)">
      <use transform="translate(0 0.125)" xlink:href="#DejaVuSans-Oblique-964"/>
      <use transform="translate(60.205078 -16.28125)scale(0.7)" xlink:href="#DejaVuSans-Oblique-70"/>
      <use transform="translate(100.46875 -16.28125)scale(0.7)" xlink:href="#DejaVuSans-52"/>
      <use transform="translate(147.739258 0.125)" xlink:href="#DejaVuSans-40"/>
      <use transform="translate(186.75293 0.125)" xlink:href="#DejaVuSans-Oblique-109"/>
      <use transform="translate(284.165039 0.125)" xlink:href="#DejaVuSans-Oblique-115"/>
      <use transform="translate(336.264648 0.125)" xlink:href="#DejaVuSans-41"/>
     </g>
    </g>
   </g>
   <g id="LineCollection_3">
    <path clip-path="url(#pbf5d8ee3a7)" d="M 76.447392 367.058103 
L 76.447392 351.668253 
" style="fill:none;stroke:#1f77b4;stroke-width:1.5;"/>
    <path clip-path="url(#pbf5d8ee3a7)" d="M 92.275239 350.588174 
L 92.275239 334.017555 
" style="fill:none;stroke:#1f77b4;stroke-width:1.5;"/>
    <path clip-path="url(#pbf5d8ee3a7)" d="M 108.103086 353.619514 
L 108.103086 337.334412 
" style="fill:none;stroke:#1f77b4;stroke-width:1.5;"/>
    <path clip-path="url(#pbf5d8ee3a7)" d="M 123.930933 365.588206 
L 123.930933 350.652961 
" style="fill:none;stroke:#1f77b4;stroke-width:1.5;"/>
    <path clip-path="url(#pbf5d8ee3a7)" d="M 139.75878 378.610552 
L 139.75878 364.714322 
" style="fill:none;stroke:#1f77b4;stroke-width:1.5;"/>
    <path clip-path="url(#pbf5d8ee3a7)" d="M 155.586626 368.452377 
L 155.586626 353.939079 
" style="fill:none;stroke:#1f77b4;stroke-width:1.5;"/>
    <path clip-path="url(#pbf5d8ee3a7)" d="M 171.414473 366.600267 
L 171.414473 351.811179 
" style="fill:none;stroke:#1f77b4;stroke-width:1.5;"/>
    <path clip-path="url(#pbf5d8ee3a7)" d="M 187.24232 374.905802 
L 187.24232 360.409237 
" style="fill:none;stroke:#1f77b4;stroke-width:1.5;"/>
    <path clip-path="url(#pbf5d8ee3a7)" d="M 203.070167 388.230317 
L 203.070167 374.338672 
" style="fill:none;stroke:#1f77b4;stroke-width:1.5;"/>
    <path clip-path="url(#pbf5d8ee3a7)" d="M 218.898014 392.328379 
L 218.898014 379.150079 
" style="fill:none;stroke:#1f77b4;stroke-width:1.5;"/>
    <path clip-path="url(#pbf5d8ee3a7)" d="M 234.725861 384.548407 
L 234.725861 369.974205 
" style="fill:none;stroke:#1f77b4;stroke-width:1.5;"/>
    <path clip-path="url(#pbf5d8ee3a7)" d="M 250.553708 373.963081 
L 250.553708 358.762395 
" style="fill:none;stroke:#1f77b4;stroke-width:1.5;"/>
    <path clip-path="url(#pbf5d8ee3a7)" d="M 266.381555 372.27314 
L 266.381555 356.351025 
" style="fill:none;stroke:#1f77b4;stroke-width:1.5;"/>
    <path clip-path="url(#pbf5d8ee3a7)" d="M 282.209402 385.031678 
L 282.209402 369.799182 
" style="fill:none;stroke:#1f77b4;stroke-width:1.5;"/>
    <path clip-path="url(#pbf5d8ee3a7)" d="M 298.037249 374.404934 
L 298.037249 357.899028 
" style="fill:none;stroke:#1f77b4;stroke-width:1.5;"/>
    <path clip-path="url(#pbf5d8ee3a7)" d="M 313.865095 384.084079 
L 313.865095 367.964693 
" style="fill:none;stroke:#1f77b4;stroke-width:1.5;"/>
    <path clip-path="url(#pbf5d8ee3a7)" d="M 329.692942 369.530886 
L 329.692942 352.127256 
" style="fill:none;stroke:#1f77b4;stroke-width:1.5;"/>
    <path clip-path="url(#pbf5d8ee3a7)" d="M 345.520789 371.753821 
L 345.520789 354.245812 
" style="fill:none;stroke:#1f77b4;stroke-width:1.5;"/>
    <path clip-path="url(#pbf5d8ee3a7)" d="M 361.348636 392.799183 
L 361.348636 377.783952 
" style="fill:none;stroke:#1f77b4;stroke-width:1.5;"/>
    <path clip-path="url(#pbf5d8ee3a7)" d="M 377.176483 417.643656 
L 377.176483 405.103254 
" style="fill:none;stroke:#1f77b4;stroke-width:1.5;"/>
   </g>
   <g id="line2d_59">
    <g clip-path="url(#pbf5d8ee3a7)">
     <use style="fill:#1f77b4;stroke:#1f77b4;" x="76.447392" xlink:href="#mb8bc26594a" y="359.363178"/>
     <use style="fill:#1f77b4;stroke:#1f77b4;" x="92.275239" xlink:href="#mb8bc26594a" y="342.302864"/>
     <use style="fill:#1f77b4;stroke:#1f77b4;" x="108.103086" xlink:href="#mb8bc26594a" y="345.476963"/>
     <use style="fill:#1f77b4;stroke:#1f77b4;" x="123.930933" xlink:href="#mb8bc26594a" y="358.120583"/>
     <use style="fill:#1f77b4;stroke:#1f77b4;" x="139.75878" xlink:href="#mb8bc26594a" y="371.662437"/>
     <use style="fill:#1f77b4;stroke:#1f77b4;" x="155.586626" xlink:href="#mb8bc26594a" y="361.195728"/>
     <use style="fill:#1f77b4;stroke:#1f77b4;" x="171.414473" xlink:href="#mb8bc26594a" y="359.205723"/>
     <use style="fill:#1f77b4;stroke:#1f77b4;" x="187.24232" xlink:href="#mb8bc26594a" y="367.657519"/>
     <use style="fill:#1f77b4;stroke:#1f77b4;" x="203.070167" xlink:href="#mb8bc26594a" y="381.284495"/>
     <use style="fill:#1f77b4;stroke:#1f77b4;" x="218.898014" xlink:href="#mb8bc26594a" y="385.739229"/>
     <use style="fill:#1f77b4;stroke:#1f77b4;" x="234.725861" xlink:href="#mb8bc26594a" y="377.261306"/>
     <use style="fill:#1f77b4;stroke:#1f77b4;" x="250.553708" xlink:href="#mb8bc26594a" y="366.362738"/>
     <use style="fill:#1f77b4;stroke:#1f77b4;" x="266.381555" xlink:href="#mb8bc26594a" y="364.312082"/>
     <use style="fill:#1f77b4;stroke:#1f77b4;" x="282.209402" xlink:href="#mb8bc26594a" y="377.41543"/>
     <use style="fill:#1f77b4;stroke:#1f77b4;" x="298.037249" xlink:href="#mb8bc26594a" y="366.151981"/>
     <use style="fill:#1f77b4;stroke:#1f77b4;" x="313.865095" xlink:href="#mb8bc26594a" y="376.024386"/>
     <use style="fill:#1f77b4;stroke:#1f77b4;" x="329.692942" xlink:href="#mb8bc26594a" y="360.829071"/>
     <use style="fill:#1f77b4;stroke:#1f77b4;" x="345.520789" xlink:href="#mb8bc26594a" y="362.999816"/>
     <use style="fill:#1f77b4;stroke:#1f77b4;" x="361.348636" xlink:href="#mb8bc26594a" y="385.291568"/>
     <use style="fill:#1f77b4;stroke:#1f77b4;" x="377.176483" xlink:href="#mb8bc26594a" y="411.373455"/>
    </g>
   </g>
   <g id="patch_13">
    <path d="M 61.410938 547.39625 
L 61.410938 329.83625 
" style="fill:none;stroke:#000000;stroke-linecap:square;stroke-linejoin:miter;stroke-width:0.8;"/>
   </g>
   <g id="patch_14">
    <path d="M 392.212938 547.39625 
L 392.212938 329.83625 
" style="fill:none;stroke:#000000;stroke-linecap:square;stroke-linejoin:miter;stroke-width:0.8;"/>
   </g>
   <g id="patch_15">
    <path d="M 61.410938 547.39625 
L 392.212938 547.39625 
" style="fill:none;stroke:#000000;stroke-linecap:square;stroke-linejoin:miter;stroke-width:0.8;"/>
   </g>
   <g id="patch_16">
    <path d="M 61.410938 329.83625 
L 392.212938 329.83625 
" style="fill:none;stroke:#000000;stroke-linecap:square;stroke-linejoin:miter;stroke-width:0.8;"/>
   </g>
   <g id="text_37">
    <!-- Cs F4 up -->
    <g transform="translate(174.793813 323.83625)scale(0.24 -0.24)">
     <defs>
      <path d="M 8.5 21.578125 
L 8.5 54.6875 
L 17.484375 54.6875 
L 17.484375 21.921875 
Q 17.484375 14.15625 20.5 10.265625 
Q 23.53125 6.390625 29.59375 6.390625 
Q 36.859375 6.390625 41.078125 11.03125 
Q 45.3125 15.671875 45.3125 23.6875 
L 45.3125 54.6875 
L 54.296875 54.6875 
L 54.296875 0 
L 45.3125 0 
L 45.3125 8.40625 
Q 42.046875 3.421875 37.71875 1 
Q 33.40625 -1.421875 27.6875 -1.421875 
Q 18.265625 -1.421875 13.375 4.4375 
Q 8.5 10.296875 8.5 21.578125 
z
M 31.109375 56 
z
" id="DejaVuSans-117"/>
      <path d="M 18.109375 8.203125 
L 18.109375 -20.796875 
L 9.078125 -20.796875 
L 9.078125 54.6875 
L 18.109375 54.6875 
L 18.109375 46.390625 
Q 20.953125 51.265625 25.265625 53.625 
Q 29.59375 56 35.59375 56 
Q 45.5625 56 51.78125 48.09375 
Q 58.015625 40.1875 58.015625 27.296875 
Q 58.015625 14.40625 51.78125 6.484375 
Q 45.5625 -1.421875 35.59375 -1.421875 
Q 29.59375 -1.421875 25.265625 0.953125 
Q 20.953125 3.328125 18.109375 8.203125 
z
M 48.6875 27.296875 
Q 48.6875 37.203125 44.609375 42.84375 
Q 40.53125 48.484375 33.40625 48.484375 
Q 26.265625 48.484375 22.1875 42.84375 
Q 18.109375 37.203125 18.109375 27.296875 
Q 18.109375 17.390625 22.1875 11.75 
Q 26.265625 6.109375 33.40625 6.109375 
Q 40.53125 6.109375 44.609375 11.75 
Q 48.6875 17.390625 48.6875 27.296875 
z
" id="DejaVuSans-112"/>
     </defs>
     <use xlink:href="#DejaVuSans-67"/>
     <use x="69.824219" xlink:href="#DejaVuSans-115"/>
     <use x="121.923828" xlink:href="#DejaVuSans-32"/>
     <use x="153.710938" xlink:href="#DejaVuSans-70"/>
     <use x="211.230469" xlink:href="#DejaVuSans-52"/>
     <use x="274.853516" xlink:href="#DejaVuSans-32"/>
     <use x="306.640625" xlink:href="#DejaVuSans-117"/>
     <use x="370.019531" xlink:href="#DejaVuSans-112"/>
    </g>
   </g>
  </g>
  <g id="axes_4">
   <g id="patch_17">
    <path d="M 458.610938 547.39625 
L 789.412938 547.39625 
L 789.412938 329.83625 
L 458.610938 329.83625 
z
" style="fill:none;"/>
   </g>
   <g id="matplotlib.axis_7">
    <g id="xtick_13">
     <g id="line2d_60">
      <path clip-path="url(#pb89f9e48bd)" d="M 536.95878 547.39625 
L 536.95878 329.83625 
" style="fill:none;stroke:#b0b0b0;stroke-linecap:square;stroke-width:0.8;"/>
     </g>
     <g id="line2d_61">
      <g>
       <use style="stroke:#000000;stroke-width:0.8;" x="536.95878" xlink:href="#m005f0a59be" y="547.39625"/>
      </g>
     </g>
     <g id="text_38">
      <!-- 5 -->
      <g transform="translate(532.186905 565.793906)scale(0.15 -0.15)">
       <use xlink:href="#DejaVuSans-53"/>
      </g>
     </g>
    </g>
    <g id="xtick_14">
     <g id="line2d_62">
      <path clip-path="url(#pb89f9e48bd)" d="M 616.098014 547.39625 
L 616.098014 329.83625 
" style="fill:none;stroke:#b0b0b0;stroke-linecap:square;stroke-width:0.8;"/>
     </g>
     <g id="line2d_63">
      <g>
       <use style="stroke:#000000;stroke-width:0.8;" x="616.098014" xlink:href="#m005f0a59be" y="547.39625"/>
      </g>
     </g>
     <g id="text_39">
      <!-- 10 -->
      <g transform="translate(606.554264 565.793906)scale(0.15 -0.15)">
       <use xlink:href="#DejaVuSans-49"/>
       <use x="63.623047" xlink:href="#DejaVuSans-48"/>
      </g>
     </g>
    </g>
    <g id="xtick_15">
     <g id="line2d_64">
      <path clip-path="url(#pb89f9e48bd)" d="M 695.237249 547.39625 
L 695.237249 329.83625 
" style="fill:none;stroke:#b0b0b0;stroke-linecap:square;stroke-width:0.8;"/>
     </g>
     <g id="line2d_65">
      <g>
       <use style="stroke:#000000;stroke-width:0.8;" x="695.237249" xlink:href="#m005f0a59be" y="547.39625"/>
      </g>
     </g>
     <g id="text_40">
      <!-- 15 -->
      <g transform="translate(685.693499 565.793906)scale(0.15 -0.15)">
       <use xlink:href="#DejaVuSans-49"/>
       <use x="63.623047" xlink:href="#DejaVuSans-53"/>
      </g>
     </g>
    </g>
    <g id="xtick_16">
     <g id="line2d_66">
      <path clip-path="url(#pb89f9e48bd)" d="M 774.376483 547.39625 
L 774.376483 329.83625 
" style="fill:none;stroke:#b0b0b0;stroke-linecap:square;stroke-width:0.8;"/>
     </g>
     <g id="line2d_67">
      <g>
       <use style="stroke:#000000;stroke-width:0.8;" x="774.376483" xlink:href="#m005f0a59be" y="547.39625"/>
      </g>
     </g>
     <g id="text_41">
      <!-- 20 -->
      <g transform="translate(764.832733 565.793906)scale(0.15 -0.15)">
       <use xlink:href="#DejaVuSans-50"/>
       <use x="63.623047" xlink:href="#DejaVuSans-48"/>
      </g>
     </g>
    </g>
    <g id="text_42">
     <!-- Site # -->
     <g transform="translate(593.254125 588.110312)scale(0.2 -0.2)">
      <use xlink:href="#DejaVuSans-83"/>
      <use x="63.476562" xlink:href="#DejaVuSans-105"/>
      <use x="91.259766" xlink:href="#DejaVuSans-116"/>
      <use x="130.46875" xlink:href="#DejaVuSans-101"/>
      <use x="191.992188" xlink:href="#DejaVuSans-32"/>
      <use x="223.779297" xlink:href="#DejaVuSans-35"/>
     </g>
    </g>
   </g>
   <g id="matplotlib.axis_8">
    <g id="ytick_17">
     <g id="line2d_68">
      <path clip-path="url(#pb89f9e48bd)" d="M 458.610938 547.39625 
L 789.412938 547.39625 
" style="fill:none;stroke:#b0b0b0;stroke-linecap:square;stroke-width:0.8;"/>
     </g>
     <g id="line2d_69">
      <g>
       <use style="stroke:#000000;stroke-width:0.8;" x="458.610938" xlink:href="#mc3ce260a5b" y="547.39625"/>
      </g>
     </g>
     <g id="text_43">
      <!-- 0 -->
      <g transform="translate(442.067188 553.095078)scale(0.15 -0.15)">
       <use xlink:href="#DejaVuSans-48"/>
      </g>
     </g>
    </g>
    <g id="ytick_18">
     <g id="line2d_70">
      <path clip-path="url(#pb89f9e48bd)" d="M 458.610938 485.637724 
L 789.412938 485.637724 
" style="fill:none;stroke:#b0b0b0;stroke-linecap:square;stroke-width:0.8;"/>
     </g>
     <g id="line2d_71">
      <g>
       <use style="stroke:#000000;stroke-width:0.8;" x="458.610938" xlink:href="#mc3ce260a5b" y="485.637724"/>
      </g>
     </g>
     <g id="text_44">
      <!-- 2 -->
      <g transform="translate(442.067188 491.336552)scale(0.15 -0.15)">
       <use xlink:href="#DejaVuSans-50"/>
      </g>
     </g>
    </g>
    <g id="ytick_19">
     <g id="line2d_72">
      <path clip-path="url(#pb89f9e48bd)" d="M 458.610938 423.879198 
L 789.412938 423.879198 
" style="fill:none;stroke:#b0b0b0;stroke-linecap:square;stroke-width:0.8;"/>
     </g>
     <g id="line2d_73">
      <g>
       <use style="stroke:#000000;stroke-width:0.8;" x="458.610938" xlink:href="#mc3ce260a5b" y="423.879198"/>
      </g>
     </g>
     <g id="text_45">
      <!-- 4 -->
      <g transform="translate(442.067188 429.578026)scale(0.15 -0.15)">
       <use xlink:href="#DejaVuSans-52"/>
      </g>
     </g>
    </g>
    <g id="ytick_20">
     <g id="line2d_74">
      <path clip-path="url(#pb89f9e48bd)" d="M 458.610938 362.120672 
L 789.412938 362.120672 
" style="fill:none;stroke:#b0b0b0;stroke-linecap:square;stroke-width:0.8;"/>
     </g>
     <g id="line2d_75">
      <g>
       <use style="stroke:#000000;stroke-width:0.8;" x="458.610938" xlink:href="#mc3ce260a5b" y="362.120672"/>
      </g>
     </g>
     <g id="text_46">
      <!-- 6 -->
      <g transform="translate(442.067188 367.8195)scale(0.15 -0.15)">
       <defs>
        <path d="M 33.015625 40.375 
Q 26.375 40.375 22.484375 35.828125 
Q 18.609375 31.296875 18.609375 23.390625 
Q 18.609375 15.53125 22.484375 10.953125 
Q 26.375 6.390625 33.015625 6.390625 
Q 39.65625 6.390625 43.53125 10.953125 
Q 47.40625 15.53125 47.40625 23.390625 
Q 47.40625 31.296875 43.53125 35.828125 
Q 39.65625 40.375 33.015625 40.375 
z
M 52.59375 71.296875 
L 52.59375 62.3125 
Q 48.875 64.0625 45.09375 64.984375 
Q 41.3125 65.921875 37.59375 65.921875 
Q 27.828125 65.921875 22.671875 59.328125 
Q 17.53125 52.734375 16.796875 39.40625 
Q 19.671875 43.65625 24.015625 45.921875 
Q 28.375 48.1875 33.59375 48.1875 
Q 44.578125 48.1875 50.953125 41.515625 
Q 57.328125 34.859375 57.328125 23.390625 
Q 57.328125 12.15625 50.6875 5.359375 
Q 44.046875 -1.421875 33.015625 -1.421875 
Q 20.359375 -1.421875 13.671875 8.265625 
Q 6.984375 17.96875 6.984375 36.375 
Q 6.984375 53.65625 15.1875 63.9375 
Q 23.390625 74.21875 37.203125 74.21875 
Q 40.921875 74.21875 44.703125 73.484375 
Q 48.484375 72.75 52.59375 71.296875 
z
" id="DejaVuSans-54"/>
       </defs>
       <use xlink:href="#DejaVuSans-54"/>
      </g>
     </g>
    </g>
    <g id="text_47">
     <!-- $ \tau_{F3} (ms)$ -->
     <g transform="translate(433.907813 476.21625)rotate(-90)scale(0.2 -0.2)">
      <use transform="translate(0 0.125)" xlink:href="#DejaVuSans-Oblique-964"/>
      <use transform="translate(60.205078 -16.28125)scale(0.7)" xlink:href="#DejaVuSans-Oblique-70"/>
      <use transform="translate(100.46875 -16.28125)scale(0.7)" xlink:href="#DejaVuSans-51"/>
      <use transform="translate(147.739258 0.125)" xlink:href="#DejaVuSans-40"/>
      <use transform="translate(186.75293 0.125)" xlink:href="#DejaVuSans-Oblique-109"/>
      <use transform="translate(284.165039 0.125)" xlink:href="#DejaVuSans-Oblique-115"/>
      <use transform="translate(336.264648 0.125)" xlink:href="#DejaVuSans-41"/>
     </g>
    </g>
   </g>
   <g id="LineCollection_4">
    <path clip-path="url(#pb89f9e48bd)" d="M 473.647392 375.613516 
L 473.647392 361.319735 
" style="fill:none;stroke:#1f77b4;stroke-width:1.5;"/>
    <path clip-path="url(#pb89f9e48bd)" d="M 489.475239 369.471335 
L 489.475239 354.071294 
" style="fill:none;stroke:#1f77b4;stroke-width:1.5;"/>
    <path clip-path="url(#pb89f9e48bd)" d="M 505.303086 357.230209 
L 505.303086 341.828111 
" style="fill:none;stroke:#1f77b4;stroke-width:1.5;"/>
    <path clip-path="url(#pb89f9e48bd)" d="M 521.130933 351.403643 
L 521.130933 336.100057 
" style="fill:none;stroke:#1f77b4;stroke-width:1.5;"/>
    <path clip-path="url(#pb89f9e48bd)" d="M 536.95878 359.147093 
L 536.95878 344.314303 
" style="fill:none;stroke:#1f77b4;stroke-width:1.5;"/>
    <path clip-path="url(#pb89f9e48bd)" d="M 552.786626 359.325516 
L 552.786626 344.325575 
" style="fill:none;stroke:#1f77b4;stroke-width:1.5;"/>
    <path clip-path="url(#pb89f9e48bd)" d="M 568.614473 378.040916 
L 568.614473 364.61821 
" style="fill:none;stroke:#1f77b4;stroke-width:1.5;"/>
    <path clip-path="url(#pb89f9e48bd)" d="M 584.44232 362.5956 
L 584.44232 347.609998 
" style="fill:none;stroke:#1f77b4;stroke-width:1.5;"/>
    <path clip-path="url(#pb89f9e48bd)" d="M 600.270167 400.587173 
L 600.270167 388.425517 
" style="fill:none;stroke:#1f77b4;stroke-width:1.5;"/>
    <path clip-path="url(#pb89f9e48bd)" d="M 616.098014 382.130978 
L 616.098014 368.51261 
" style="fill:none;stroke:#1f77b4;stroke-width:1.5;"/>
    <path clip-path="url(#pb89f9e48bd)" d="M 631.925861 372.141157 
L 631.925861 357.368385 
" style="fill:none;stroke:#1f77b4;stroke-width:1.5;"/>
    <path clip-path="url(#pb89f9e48bd)" d="M 647.753708 390.126817 
L 647.753708 376.605049 
" style="fill:none;stroke:#1f77b4;stroke-width:1.5;"/>
    <path clip-path="url(#pb89f9e48bd)" d="M 663.581555 386.346743 
L 663.581555 372.195496 
" style="fill:none;stroke:#1f77b4;stroke-width:1.5;"/>
    <path clip-path="url(#pb89f9e48bd)" d="M 679.409402 377.963123 
L 679.409402 362.958047 
" style="fill:none;stroke:#1f77b4;stroke-width:1.5;"/>
    <path clip-path="url(#pb89f9e48bd)" d="M 695.237249 391.187046 
L 695.237249 376.788057 
" style="fill:none;stroke:#1f77b4;stroke-width:1.5;"/>
    <path clip-path="url(#pb89f9e48bd)" d="M 711.065095 393.918499 
L 711.065095 379.27332 
" style="fill:none;stroke:#1f77b4;stroke-width:1.5;"/>
    <path clip-path="url(#pb89f9e48bd)" d="M 726.892942 385.066743 
L 726.892942 369.629969 
" style="fill:none;stroke:#1f77b4;stroke-width:1.5;"/>
    <path clip-path="url(#pb89f9e48bd)" d="M 742.720789 353.878304 
L 742.720789 335.652833 
" style="fill:none;stroke:#1f77b4;stroke-width:1.5;"/>
    <path clip-path="url(#pb89f9e48bd)" d="M 758.548636 419.631254 
L 758.548636 407.525649 
" style="fill:none;stroke:#1f77b4;stroke-width:1.5;"/>
    <path clip-path="url(#pb89f9e48bd)" d="M 774.376483 451.984485 
L 774.376483 442.951186 
" style="fill:none;stroke:#1f77b4;stroke-width:1.5;"/>
   </g>
   <g id="line2d_76">
    <g clip-path="url(#pb89f9e48bd)">
     <use style="fill:#1f77b4;stroke:#1f77b4;" x="473.647392" xlink:href="#mb8bc26594a" y="368.466626"/>
     <use style="fill:#1f77b4;stroke:#1f77b4;" x="489.475239" xlink:href="#mb8bc26594a" y="361.771315"/>
     <use style="fill:#1f77b4;stroke:#1f77b4;" x="505.303086" xlink:href="#mb8bc26594a" y="349.52916"/>
     <use style="fill:#1f77b4;stroke:#1f77b4;" x="521.130933" xlink:href="#mb8bc26594a" y="343.75185"/>
     <use style="fill:#1f77b4;stroke:#1f77b4;" x="536.95878" xlink:href="#mb8bc26594a" y="351.730698"/>
     <use style="fill:#1f77b4;stroke:#1f77b4;" x="552.786626" xlink:href="#mb8bc26594a" y="351.825545"/>
     <use style="fill:#1f77b4;stroke:#1f77b4;" x="568.614473" xlink:href="#mb8bc26594a" y="371.329563"/>
     <use style="fill:#1f77b4;stroke:#1f77b4;" x="584.44232" xlink:href="#mb8bc26594a" y="355.102799"/>
     <use style="fill:#1f77b4;stroke:#1f77b4;" x="600.270167" xlink:href="#mb8bc26594a" y="394.506345"/>
     <use style="fill:#1f77b4;stroke:#1f77b4;" x="616.098014" xlink:href="#mb8bc26594a" y="375.321794"/>
     <use style="fill:#1f77b4;stroke:#1f77b4;" x="631.925861" xlink:href="#mb8bc26594a" y="364.754771"/>
     <use style="fill:#1f77b4;stroke:#1f77b4;" x="647.753708" xlink:href="#mb8bc26594a" y="383.365933"/>
     <use style="fill:#1f77b4;stroke:#1f77b4;" x="663.581555" xlink:href="#mb8bc26594a" y="379.271119"/>
     <use style="fill:#1f77b4;stroke:#1f77b4;" x="679.409402" xlink:href="#mb8bc26594a" y="370.460585"/>
     <use style="fill:#1f77b4;stroke:#1f77b4;" x="695.237249" xlink:href="#mb8bc26594a" y="383.987551"/>
     <use style="fill:#1f77b4;stroke:#1f77b4;" x="711.065095" xlink:href="#mb8bc26594a" y="386.59591"/>
     <use style="fill:#1f77b4;stroke:#1f77b4;" x="726.892942" xlink:href="#mb8bc26594a" y="377.348356"/>
     <use style="fill:#1f77b4;stroke:#1f77b4;" x="742.720789" xlink:href="#mb8bc26594a" y="344.765568"/>
     <use style="fill:#1f77b4;stroke:#1f77b4;" x="758.548636" xlink:href="#mb8bc26594a" y="413.578452"/>
     <use style="fill:#1f77b4;stroke:#1f77b4;" x="774.376483" xlink:href="#mb8bc26594a" y="447.467836"/>
    </g>
   </g>
   <g id="patch_18">
    <path d="M 458.610938 547.39625 
L 458.610938 329.83625 
" style="fill:none;stroke:#000000;stroke-linecap:square;stroke-linejoin:miter;stroke-width:0.8;"/>
   </g>
   <g id="patch_19">
    <path d="M 789.412938 547.39625 
L 789.412938 329.83625 
" style="fill:none;stroke:#000000;stroke-linecap:square;stroke-linejoin:miter;stroke-width:0.8;"/>
   </g>
   <g id="patch_20">
    <path d="M 458.610938 547.39625 
L 789.412938 547.39625 
" style="fill:none;stroke:#000000;stroke-linecap:square;stroke-linejoin:miter;stroke-width:0.8;"/>
   </g>
   <g id="patch_21">
    <path d="M 458.610938 329.83625 
L 789.412938 329.83625 
" style="fill:none;stroke:#000000;stroke-linecap:square;stroke-linejoin:miter;stroke-width:0.8;"/>
   </g>
   <g id="text_48">
    <!-- Cs F3 counterop -->
    <g transform="translate(526.354438 323.83625)scale(0.24 -0.24)">
     <defs>
      <path d="M 48.78125 52.59375 
L 48.78125 44.1875 
Q 44.96875 46.296875 41.140625 47.34375 
Q 37.3125 48.390625 33.40625 48.390625 
Q 24.65625 48.390625 19.8125 42.84375 
Q 14.984375 37.3125 14.984375 27.296875 
Q 14.984375 17.28125 19.8125 11.734375 
Q 24.65625 6.203125 33.40625 6.203125 
Q 37.3125 6.203125 41.140625 7.25 
Q 44.96875 8.296875 48.78125 10.40625 
L 48.78125 2.09375 
Q 45.015625 0.34375 40.984375 -0.53125 
Q 36.96875 -1.421875 32.421875 -1.421875 
Q 20.0625 -1.421875 12.78125 6.34375 
Q 5.515625 14.109375 5.515625 27.296875 
Q 5.515625 40.671875 12.859375 48.328125 
Q 20.21875 56 33.015625 56 
Q 37.15625 56 41.109375 55.140625 
Q 45.0625 54.296875 48.78125 52.59375 
z
" id="DejaVuSans-99"/>
      <path d="M 41.109375 46.296875 
Q 39.59375 47.171875 37.8125 47.578125 
Q 36.03125 48 33.890625 48 
Q 26.265625 48 22.1875 43.046875 
Q 18.109375 38.09375 18.109375 28.8125 
L 18.109375 0 
L 9.078125 0 
L 9.078125 54.6875 
L 18.109375 54.6875 
L 18.109375 46.1875 
Q 20.953125 51.171875 25.484375 53.578125 
Q 30.03125 56 36.53125 56 
Q 37.453125 56 38.578125 55.875 
Q 39.703125 55.765625 41.0625 55.515625 
z
" id="DejaVuSans-114"/>
     </defs>
     <use xlink:href="#DejaVuSans-67"/>
     <use x="69.824219" xlink:href="#DejaVuSans-115"/>
     <use x="121.923828" xlink:href="#DejaVuSans-32"/>
     <use x="153.710938" xlink:href="#DejaVuSans-70"/>
     <use x="211.230469" xlink:href="#DejaVuSans-51"/>
     <use x="274.853516" xlink:href="#DejaVuSans-32"/>
     <use x="306.640625" xlink:href="#DejaVuSans-99"/>
     <use x="361.621094" xlink:href="#DejaVuSans-111"/>
     <use x="422.802734" xlink:href="#DejaVuSans-117"/>
     <use x="486.181641" xlink:href="#DejaVuSans-110"/>
     <use x="549.560547" xlink:href="#DejaVuSans-116"/>
     <use x="588.769531" xlink:href="#DejaVuSans-101"/>
     <use x="650.292969" xlink:href="#DejaVuSans-114"/>
     <use x="689.15625" xlink:href="#DejaVuSans-111"/>
     <use x="750.337891" xlink:href="#DejaVuSans-112"/>
    </g>
   </g>
  </g>
  <g id="axes_5">
   <g id="patch_22">
    <path d="M 61.410938 845.79625 
L 392.212938 845.79625 
L 392.212938 628.23625 
L 61.410938 628.23625 
z
" style="fill:none;"/>
   </g>
   <g id="matplotlib.axis_9">
    <g id="xtick_17">
     <g id="line2d_77">
      <path clip-path="url(#p80bb7075c6)" d="M 139.75878 845.79625 
L 139.75878 628.23625 
" style="fill:none;stroke:#b0b0b0;stroke-linecap:square;stroke-width:0.8;"/>
     </g>
     <g id="line2d_78">
      <g>
       <use style="stroke:#000000;stroke-width:0.8;" x="139.75878" xlink:href="#m005f0a59be" y="845.79625"/>
      </g>
     </g>
     <g id="text_49">
      <!-- 5 -->
      <g transform="translate(134.986905 864.193906)scale(0.15 -0.15)">
       <use xlink:href="#DejaVuSans-53"/>
      </g>
     </g>
    </g>
    <g id="xtick_18">
     <g id="line2d_79">
      <path clip-path="url(#p80bb7075c6)" d="M 218.898014 845.79625 
L 218.898014 628.23625 
" style="fill:none;stroke:#b0b0b0;stroke-linecap:square;stroke-width:0.8;"/>
     </g>
     <g id="line2d_80">
      <g>
       <use style="stroke:#000000;stroke-width:0.8;" x="218.898014" xlink:href="#m005f0a59be" y="845.79625"/>
      </g>
     </g>
     <g id="text_50">
      <!-- 10 -->
      <g transform="translate(209.354264 864.193906)scale(0.15 -0.15)">
       <use xlink:href="#DejaVuSans-49"/>
       <use x="63.623047" xlink:href="#DejaVuSans-48"/>
      </g>
     </g>
    </g>
    <g id="xtick_19">
     <g id="line2d_81">
      <path clip-path="url(#p80bb7075c6)" d="M 298.037249 845.79625 
L 298.037249 628.23625 
" style="fill:none;stroke:#b0b0b0;stroke-linecap:square;stroke-width:0.8;"/>
     </g>
     <g id="line2d_82">
      <g>
       <use style="stroke:#000000;stroke-width:0.8;" x="298.037249" xlink:href="#m005f0a59be" y="845.79625"/>
      </g>
     </g>
     <g id="text_51">
      <!-- 15 -->
      <g transform="translate(288.493499 864.193906)scale(0.15 -0.15)">
       <use xlink:href="#DejaVuSans-49"/>
       <use x="63.623047" xlink:href="#DejaVuSans-53"/>
      </g>
     </g>
    </g>
    <g id="xtick_20">
     <g id="line2d_83">
      <path clip-path="url(#p80bb7075c6)" d="M 377.176483 845.79625 
L 377.176483 628.23625 
" style="fill:none;stroke:#b0b0b0;stroke-linecap:square;stroke-width:0.8;"/>
     </g>
     <g id="line2d_84">
      <g>
       <use style="stroke:#000000;stroke-width:0.8;" x="377.176483" xlink:href="#m005f0a59be" y="845.79625"/>
      </g>
     </g>
     <g id="text_52">
      <!-- 20 -->
      <g transform="translate(367.632733 864.193906)scale(0.15 -0.15)">
       <use xlink:href="#DejaVuSans-50"/>
       <use x="63.623047" xlink:href="#DejaVuSans-48"/>
      </g>
     </g>
    </g>
    <g id="text_53">
     <!-- Site # -->
     <g transform="translate(196.054125 886.510312)scale(0.2 -0.2)">
      <use xlink:href="#DejaVuSans-83"/>
      <use x="63.476562" xlink:href="#DejaVuSans-105"/>
      <use x="91.259766" xlink:href="#DejaVuSans-116"/>
      <use x="130.46875" xlink:href="#DejaVuSans-101"/>
      <use x="191.992188" xlink:href="#DejaVuSans-32"/>
      <use x="223.779297" xlink:href="#DejaVuSans-35"/>
     </g>
    </g>
   </g>
   <g id="matplotlib.axis_10">
    <g id="ytick_21">
     <g id="line2d_85">
      <path clip-path="url(#p80bb7075c6)" d="M 61.410938 845.79625 
L 392.212938 845.79625 
" style="fill:none;stroke:#b0b0b0;stroke-linecap:square;stroke-width:0.8;"/>
     </g>
     <g id="line2d_86">
      <g>
       <use style="stroke:#000000;stroke-width:0.8;" x="61.410938" xlink:href="#mc3ce260a5b" y="845.79625"/>
      </g>
     </g>
     <g id="text_54">
      <!-- 0.0 -->
      <g transform="translate(30.55625 851.495078)scale(0.15 -0.15)">
       <use xlink:href="#DejaVuSans-48"/>
       <use x="63.623047" xlink:href="#DejaVuSans-46"/>
       <use x="95.410156" xlink:href="#DejaVuSans-48"/>
      </g>
     </g>
    </g>
    <g id="ytick_22">
     <g id="line2d_87">
      <path clip-path="url(#p80bb7075c6)" d="M 61.410938 805.281924 
L 392.212938 805.281924 
" style="fill:none;stroke:#b0b0b0;stroke-linecap:square;stroke-width:0.8;"/>
     </g>
     <g id="line2d_88">
      <g>
       <use style="stroke:#000000;stroke-width:0.8;" x="61.410938" xlink:href="#mc3ce260a5b" y="805.281924"/>
      </g>
     </g>
     <g id="text_55">
      <!-- 0.5 -->
      <g transform="translate(30.55625 810.980752)scale(0.15 -0.15)">
       <use xlink:href="#DejaVuSans-48"/>
       <use x="63.623047" xlink:href="#DejaVuSans-46"/>
       <use x="95.410156" xlink:href="#DejaVuSans-53"/>
      </g>
     </g>
    </g>
    <g id="ytick_23">
     <g id="line2d_89">
      <path clip-path="url(#p80bb7075c6)" d="M 61.410938 764.767597 
L 392.212938 764.767597 
" style="fill:none;stroke:#b0b0b0;stroke-linecap:square;stroke-width:0.8;"/>
     </g>
     <g id="line2d_90">
      <g>
       <use style="stroke:#000000;stroke-width:0.8;" x="61.410938" xlink:href="#mc3ce260a5b" y="764.767597"/>
      </g>
     </g>
     <g id="text_56">
      <!-- 1.0 -->
      <g transform="translate(30.55625 770.466425)scale(0.15 -0.15)">
       <use xlink:href="#DejaVuSans-49"/>
       <use x="63.623047" xlink:href="#DejaVuSans-46"/>
       <use x="95.410156" xlink:href="#DejaVuSans-48"/>
      </g>
     </g>
    </g>
    <g id="ytick_24">
     <g id="line2d_91">
      <path clip-path="url(#p80bb7075c6)" d="M 61.410938 724.253271 
L 392.212938 724.253271 
" style="fill:none;stroke:#b0b0b0;stroke-linecap:square;stroke-width:0.8;"/>
     </g>
     <g id="line2d_92">
      <g>
       <use style="stroke:#000000;stroke-width:0.8;" x="61.410938" xlink:href="#mc3ce260a5b" y="724.253271"/>
      </g>
     </g>
     <g id="text_57">
      <!-- 1.5 -->
      <g transform="translate(30.55625 729.952099)scale(0.15 -0.15)">
       <use xlink:href="#DejaVuSans-49"/>
       <use x="63.623047" xlink:href="#DejaVuSans-46"/>
       <use x="95.410156" xlink:href="#DejaVuSans-53"/>
      </g>
     </g>
    </g>
    <g id="ytick_25">
     <g id="line2d_93">
      <path clip-path="url(#p80bb7075c6)" d="M 61.410938 683.738945 
L 392.212938 683.738945 
" style="fill:none;stroke:#b0b0b0;stroke-linecap:square;stroke-width:0.8;"/>
     </g>
     <g id="line2d_94">
      <g>
       <use style="stroke:#000000;stroke-width:0.8;" x="61.410938" xlink:href="#mc3ce260a5b" y="683.738945"/>
      </g>
     </g>
     <g id="text_58">
      <!-- 2.0 -->
      <g transform="translate(30.55625 689.437773)scale(0.15 -0.15)">
       <use xlink:href="#DejaVuSans-50"/>
       <use x="63.623047" xlink:href="#DejaVuSans-46"/>
       <use x="95.410156" xlink:href="#DejaVuSans-48"/>
      </g>
     </g>
    </g>
    <g id="ytick_26">
     <g id="line2d_95">
      <path clip-path="url(#p80bb7075c6)" d="M 61.410938 643.224618 
L 392.212938 643.224618 
" style="fill:none;stroke:#b0b0b0;stroke-linecap:square;stroke-width:0.8;"/>
     </g>
     <g id="line2d_96">
      <g>
       <use style="stroke:#000000;stroke-width:0.8;" x="61.410938" xlink:href="#mc3ce260a5b" y="643.224618"/>
      </g>
     </g>
     <g id="text_59">
      <!-- 2.5 -->
      <g transform="translate(30.55625 648.923446)scale(0.15 -0.15)">
       <use xlink:href="#DejaVuSans-50"/>
       <use x="63.623047" xlink:href="#DejaVuSans-46"/>
       <use x="95.410156" xlink:href="#DejaVuSans-53"/>
      </g>
     </g>
    </g>
    <g id="text_60">
     <!-- $ \tau_{F4} (ms)$ -->
     <g transform="translate(22.396875 774.61625)rotate(-90)scale(0.2 -0.2)">
      <use transform="translate(0 0.125)" xlink:href="#DejaVuSans-Oblique-964"/>
      <use transform="translate(60.205078 -16.28125)scale(0.7)" xlink:href="#DejaVuSans-Oblique-70"/>
      <use transform="translate(100.46875 -16.28125)scale(0.7)" xlink:href="#DejaVuSans-52"/>
      <use transform="translate(147.739258 0.125)" xlink:href="#DejaVuSans-40"/>
      <use transform="translate(186.75293 0.125)" xlink:href="#DejaVuSans-Oblique-109"/>
      <use transform="translate(284.165039 0.125)" xlink:href="#DejaVuSans-Oblique-115"/>
      <use transform="translate(336.264648 0.125)" xlink:href="#DejaVuSans-41"/>
     </g>
    </g>
   </g>
   <g id="LineCollection_5">
    <path clip-path="url(#p80bb7075c6)" d="M 76.447392 665.2157 
L 76.447392 649.756286 
" style="fill:none;stroke:#1f77b4;stroke-width:1.5;"/>
    <path clip-path="url(#p80bb7075c6)" d="M 92.275239 666.906434 
L 92.275239 651.273545 
" style="fill:none;stroke:#1f77b4;stroke-width:1.5;"/>
    <path clip-path="url(#p80bb7075c6)" d="M 108.103086 671.647107 
L 108.103086 657.146432 
" style="fill:none;stroke:#1f77b4;stroke-width:1.5;"/>
    <path clip-path="url(#p80bb7075c6)" d="M 123.930933 656.938621 
L 123.930933 641.876465 
" style="fill:none;stroke:#1f77b4;stroke-width:1.5;"/>
    <path clip-path="url(#p80bb7075c6)" d="M 139.75878 669.414609 
L 139.75878 655.027587 
" style="fill:none;stroke:#1f77b4;stroke-width:1.5;"/>
    <path clip-path="url(#p80bb7075c6)" d="M 155.586626 655.022292 
L 155.586626 639.657265 
" style="fill:none;stroke:#1f77b4;stroke-width:1.5;"/>
    <path clip-path="url(#p80bb7075c6)" d="M 171.414473 675.693204 
L 171.414473 661.687018 
" style="fill:none;stroke:#1f77b4;stroke-width:1.5;"/>
    <path clip-path="url(#p80bb7075c6)" d="M 187.24232 683.082218 
L 187.24232 669.486606 
" style="fill:none;stroke:#1f77b4;stroke-width:1.5;"/>
    <path clip-path="url(#p80bb7075c6)" d="M 203.070167 691.236199 
L 203.070167 678.074446 
" style="fill:none;stroke:#1f77b4;stroke-width:1.5;"/>
    <path clip-path="url(#p80bb7075c6)" d="M 218.898014 685.806106 
L 218.898014 672.164192 
" style="fill:none;stroke:#1f77b4;stroke-width:1.5;"/>
    <path clip-path="url(#p80bb7075c6)" d="M 234.725861 667.746832 
L 234.725861 652.141261 
" style="fill:none;stroke:#1f77b4;stroke-width:1.5;"/>
    <path clip-path="url(#p80bb7075c6)" d="M 250.553708 680.294496 
L 250.553708 665.298854 
" style="fill:none;stroke:#1f77b4;stroke-width:1.5;"/>
    <path clip-path="url(#p80bb7075c6)" d="M 266.381555 675.726648 
L 266.381555 659.961993 
" style="fill:none;stroke:#1f77b4;stroke-width:1.5;"/>
    <path clip-path="url(#p80bb7075c6)" d="M 282.209402 674.640837 
L 282.209402 658.871244 
" style="fill:none;stroke:#1f77b4;stroke-width:1.5;"/>
    <path clip-path="url(#p80bb7075c6)" d="M 298.037249 678.780459 
L 298.037249 663.024317 
" style="fill:none;stroke:#1f77b4;stroke-width:1.5;"/>
    <path clip-path="url(#p80bb7075c6)" d="M 313.865095 669.839147 
L 313.865095 652.497882 
" style="fill:none;stroke:#1f77b4;stroke-width:1.5;"/>
    <path clip-path="url(#p80bb7075c6)" d="M 329.692942 664.141108 
L 329.692942 646.407082 
" style="fill:none;stroke:#1f77b4;stroke-width:1.5;"/>
    <path clip-path="url(#p80bb7075c6)" d="M 345.520789 652.074977 
L 345.520789 632.890008 
" style="fill:none;stroke:#1f77b4;stroke-width:1.5;"/>
    <path clip-path="url(#p80bb7075c6)" d="M 361.348636 674.096967 
L 361.348636 657.732653 
" style="fill:none;stroke:#1f77b4;stroke-width:1.5;"/>
    <path clip-path="url(#p80bb7075c6)" d="M 377.176483 725.965168 
L 377.176483 714.539558 
" style="fill:none;stroke:#1f77b4;stroke-width:1.5;"/>
   </g>
   <g id="line2d_97">
    <g clip-path="url(#p80bb7075c6)">
     <use style="fill:#1f77b4;stroke:#1f77b4;" x="76.447392" xlink:href="#mb8bc26594a" y="657.485993"/>
     <use style="fill:#1f77b4;stroke:#1f77b4;" x="92.275239" xlink:href="#mb8bc26594a" y="659.089989"/>
     <use style="fill:#1f77b4;stroke:#1f77b4;" x="108.103086" xlink:href="#mb8bc26594a" y="664.39677"/>
     <use style="fill:#1f77b4;stroke:#1f77b4;" x="123.930933" xlink:href="#mb8bc26594a" y="649.407543"/>
     <use style="fill:#1f77b4;stroke:#1f77b4;" x="139.75878" xlink:href="#mb8bc26594a" y="662.221098"/>
     <use style="fill:#1f77b4;stroke:#1f77b4;" x="155.586626" xlink:href="#mb8bc26594a" y="647.339778"/>
     <use style="fill:#1f77b4;stroke:#1f77b4;" x="171.414473" xlink:href="#mb8bc26594a" y="668.690111"/>
     <use style="fill:#1f77b4;stroke:#1f77b4;" x="187.24232" xlink:href="#mb8bc26594a" y="676.284412"/>
     <use style="fill:#1f77b4;stroke:#1f77b4;" x="203.070167" xlink:href="#mb8bc26594a" y="684.655322"/>
     <use style="fill:#1f77b4;stroke:#1f77b4;" x="218.898014" xlink:href="#mb8bc26594a" y="678.985149"/>
     <use style="fill:#1f77b4;stroke:#1f77b4;" x="234.725861" xlink:href="#mb8bc26594a" y="659.944047"/>
     <use style="fill:#1f77b4;stroke:#1f77b4;" x="250.553708" xlink:href="#mb8bc26594a" y="672.796675"/>
     <use style="fill:#1f77b4;stroke:#1f77b4;" x="266.381555" xlink:href="#mb8bc26594a" y="667.844321"/>
     <use style="fill:#1f77b4;stroke:#1f77b4;" x="282.209402" xlink:href="#mb8bc26594a" y="666.756041"/>
     <use style="fill:#1f77b4;stroke:#1f77b4;" x="298.037249" xlink:href="#mb8bc26594a" y="670.902388"/>
     <use style="fill:#1f77b4;stroke:#1f77b4;" x="313.865095" xlink:href="#mb8bc26594a" y="661.168514"/>
     <use style="fill:#1f77b4;stroke:#1f77b4;" x="329.692942" xlink:href="#mb8bc26594a" y="655.274095"/>
     <use style="fill:#1f77b4;stroke:#1f77b4;" x="345.520789" xlink:href="#mb8bc26594a" y="642.482492"/>
     <use style="fill:#1f77b4;stroke:#1f77b4;" x="361.348636" xlink:href="#mb8bc26594a" y="665.91481"/>
     <use style="fill:#1f77b4;stroke:#1f77b4;" x="377.176483" xlink:href="#mb8bc26594a" y="720.252363"/>
    </g>
   </g>
   <g id="patch_23">
    <path d="M 61.410938 845.79625 
L 61.410938 628.23625 
" style="fill:none;stroke:#000000;stroke-linecap:square;stroke-linejoin:miter;stroke-width:0.8;"/>
   </g>
   <g id="patch_24">
    <path d="M 392.212938 845.79625 
L 392.212938 628.23625 
" style="fill:none;stroke:#000000;stroke-linecap:square;stroke-linejoin:miter;stroke-width:0.8;"/>
   </g>
   <g id="patch_25">
    <path d="M 61.410938 845.79625 
L 392.212938 845.79625 
" style="fill:none;stroke:#000000;stroke-linecap:square;stroke-linejoin:miter;stroke-width:0.8;"/>
   </g>
   <g id="patch_26">
    <path d="M 61.410938 628.23625 
L 392.212938 628.23625 
" style="fill:none;stroke:#000000;stroke-linecap:square;stroke-linejoin:miter;stroke-width:0.8;"/>
   </g>
   <g id="text_61">
    <!-- Cs F4 down -->
    <g transform="translate(157.637563 622.23625)scale(0.24 -0.24)">
     <defs>
      <path d="M 4.203125 54.6875 
L 13.1875 54.6875 
L 24.421875 12.015625 
L 35.59375 54.6875 
L 46.1875 54.6875 
L 57.421875 12.015625 
L 68.609375 54.6875 
L 77.59375 54.6875 
L 63.28125 0 
L 52.6875 0 
L 40.921875 44.828125 
L 29.109375 0 
L 18.5 0 
z
" id="DejaVuSans-119"/>
     </defs>
     <use xlink:href="#DejaVuSans-67"/>
     <use x="69.824219" xlink:href="#DejaVuSans-115"/>
     <use x="121.923828" xlink:href="#DejaVuSans-32"/>
     <use x="153.710938" xlink:href="#DejaVuSans-70"/>
     <use x="211.230469" xlink:href="#DejaVuSans-52"/>
     <use x="274.853516" xlink:href="#DejaVuSans-32"/>
     <use x="306.640625" xlink:href="#DejaVuSans-100"/>
     <use x="370.117188" xlink:href="#DejaVuSans-111"/>
     <use x="431.298828" xlink:href="#DejaVuSans-119"/>
     <use x="513.085938" xlink:href="#DejaVuSans-110"/>
    </g>
   </g>
  </g>
 </g>
 <defs>
  <clipPath id="p21b635dbb2">
   <rect height="217.56" width="330.802" x="61.410938" y="31.43625"/>
  </clipPath>
  <clipPath id="p577a38a7ea">
   <rect height="217.56" width="330.802" x="458.610938" y="31.43625"/>
  </clipPath>
  <clipPath id="pbf5d8ee3a7">
   <rect height="217.56" width="330.802" x="61.410938" y="329.83625"/>
  </clipPath>
  <clipPath id="pb89f9e48bd">
   <rect height="217.56" width="330.802" x="458.610938" y="329.83625"/>
  </clipPath>
  <clipPath id="p80bb7075c6">
   <rect height="217.56" width="330.802" x="61.410938" y="628.23625"/>
  </clipPath>
 </defs>
</svg>
